<svg version="1.1" id="Layer_1" xmlns="http://www.w3.org/2000/svg" xmlns:xlink="http://www.w3.org/1999/xlink" x="0px" y="0px" viewBox="0 0 262 150" style="enable-background:new 0 0 262 150;" xml:space="preserve">
<style type="text/css">
	#sitelogoSvg .sl0{fill:#1E1F1D;}
	#sitelogoSvg .sl1{fill:#C91680;}
	#sitelogoSvg .sl2{fill:#5E2261;}
	#sitelogoSvg .sl3{fill:#7C838A;}
	#sitelogoSvg .sl4{fill:#0487B5;}
	#sitelogoSvg .sl5{fill:#D19704;}
</style>
<g id="sitelogoSvg">
	<g>
		<path class="sl0" d="M53.4,50L53.4,50c-0.1-0.3-0.5-0.4-0.7-0.3c-0.3,0.1-0.4,0.5-0.3,0.7c0.1,0.3,0.5,0.4,0.7,0.3
			C53.4,50.6,53.5,50.3,53.4,50 M52,46.9L52,46.9c-0.1-0.3-0.5-0.4-0.7-0.3c-0.3,0.1-0.4,0.5-0.3,0.7c0.1,0.3,0.5,0.4,0.7,0.3
			C52,47.5,52.1,47.2,52,46.9 M50.6,43.8L50.6,43.8c-0.1-0.3-0.5-0.4-0.7-0.3c-0.3,0.1-0.4,0.5-0.3,0.7c0.1,0.3,0.5,0.4,0.7,0.3
			C50.6,44.4,50.7,44.1,50.6,43.8 M49.2,40.7L49.2,40.7c-0.1-0.3-0.5-0.4-0.7-0.3c-0.3,0.1-0.4,0.5-0.3,0.7c0.1,0.3,0.5,0.4,0.7,0.3
			C49.2,41.3,49.3,41,49.2,40.7 M47.8,37.6L47.8,37.6c-0.1-0.3-0.5-0.4-0.7-0.3c-0.3,0.1-0.4,0.5-0.3,0.7c0.1,0.3,0.5,0.4,0.7,0.3
			C47.8,38.2,47.9,37.9,47.8,37.6"></path>
		<path class="sl0" d="M48.8,36.5L48.8,36.5c0.3,0.1,0.6,0,0.7-0.3c0.1-0.3,0-0.6-0.3-0.7c-0.3-0.1-0.6,0-0.7,0.3
			C48.3,36.1,48.5,36.4,48.8,36.5 M51.9,37.7L51.9,37.7c0.3,0.1,0.6,0,0.7-0.3c0.1-0.3,0-0.6-0.3-0.7c-0.3-0.1-0.6,0-0.7,0.3
			C51.5,37.3,51.6,37.6,51.9,37.7 M55,38.9L55,38.9c0.3,0.1,0.6,0,0.7-0.3c0.1-0.3,0-0.6-0.3-0.7c-0.3-0.1-0.6,0-0.7,0.3
			C54.6,38.5,54.7,38.8,55,38.9 M58.1,40.1L58.1,40.1c0.3,0.1,0.6,0,0.7-0.3c0.1-0.3,0-0.6-0.3-0.7c-0.3-0.1-0.6,0-0.7,0.3
			C57.7,39.7,57.8,40,58.1,40.1 M61.3,41.3L61.3,41.3c0.3,0.1,0.6,0,0.7-0.3c0.1-0.3,0-0.6-0.3-0.7c-0.3-0.1-0.6,0-0.7,0.3
			C60.8,40.9,61,41.2,61.3,41.3 M64.4,42.5L64.4,42.5c0.3,0.1,0.6,0,0.7-0.3c0.1-0.3,0-0.6-0.3-0.7c-0.3-0.1-0.6,0-0.7,0.3
			C63.9,42.1,64.1,42.4,64.4,42.5 M67.5,43.7L67.5,43.7c0.3,0.1,0.6,0,0.7-0.3c0.1-0.3,0-0.6-0.3-0.7s-0.6,0-0.7,0.3
			C67.1,43.3,67.2,43.6,67.5,43.7 M70.6,44.9L70.6,44.9c0.3,0.1,0.6,0,0.7-0.3c0.1-0.3,0-0.6-0.3-0.7c-0.3-0.1-0.6,0-0.7,0.3
			C70.2,44.5,70.3,44.8,70.6,44.9"></path>
		<path class="sl0" d="M71.3,101.9L71.3,101.9c-0.3-0.1-0.6,0-0.7,0.3c-0.1,0.3,0,0.6,0.3,0.7c0.3,0.1,0.6,0,0.7-0.3
			C71.7,102.3,71.5,102,71.3,101.9 M68.4,100.7L68.4,100.7c-0.3-0.1-0.6,0-0.7,0.3c-0.1,0.3,0,0.6,0.3,0.7c0.3,0.1,0.6,0,0.7-0.3
			C68.8,101.1,68.7,100.8,68.4,100.7 M65.5,99.5L65.5,99.5c-0.3-0.1-0.6,0-0.7,0.3c-0.1,0.3,0,0.6,0.3,0.7c0.3,0.1,0.6,0,0.7-0.3
			C65.9,99.9,65.8,99.6,65.5,99.5 M62.6,98.3L62.6,98.3c-0.3-0.1-0.6,0-0.7,0.3c-0.1,0.3,0,0.6,0.3,0.7c0.3,0.1,0.6,0,0.7-0.3
			C63,98.7,62.9,98.4,62.6,98.3 M59.8,97.1L59.8,97.1c-0.3-0.1-0.6,0-0.7,0.3c-0.1,0.3,0,0.6,0.3,0.7c0.3,0.1,0.6,0,0.7-0.3
			C60.2,97.5,60,97.2,59.8,97.1"></path>
		<path class="sl0" d="M54.3,91.4L54.3,91.4c-0.1-0.3-0.5-0.4-0.7-0.3c-0.3,0.1-0.4,0.5-0.3,0.7c0.1,0.3,0.5,0.4,0.7,0.3
			C54.3,92,54.4,91.6,54.3,91.4 M53,88.5L53,88.5c-0.1-0.3-0.5-0.4-0.7-0.3c-0.3,0.1-0.4,0.5-0.3,0.7c0.1,0.3,0.5,0.4,0.7,0.3
			C53,89.1,53.1,88.8,53,88.5 M51.7,85.6L51.7,85.6c-0.1-0.3-0.5-0.4-0.7-0.3c-0.3,0.1-0.4,0.5-0.3,0.7c0.1,0.3,0.5,0.4,0.7,0.3
			C51.7,86.2,51.8,85.9,51.7,85.6 M50.4,82.7L50.4,82.7c-0.1-0.3-0.5-0.4-0.7-0.3c-0.3,0.1-0.4,0.5-0.3,0.7c0.1,0.3,0.5,0.4,0.7,0.3
			C50.4,83.3,50.5,83,50.4,82.7 M49.1,79.8L49.1,79.8c-0.1-0.3-0.5-0.4-0.7-0.3s-0.4,0.5-0.3,0.7c0.1,0.3,0.5,0.4,0.7,0.3
			C49.1,80.5,49.2,80.1,49.1,79.8"></path>
		<path class="sl0" d="M48.9,70.9L48.9,70.9c0.1-0.3,0-0.6-0.3-0.7c-0.3-0.1-0.6,0-0.7,0.3c-0.1,0.3,0,0.6,0.3,0.7
			C48.4,71.3,48.8,71.1,48.9,70.9 M50.1,67.8L50.1,67.8c0.1-0.3,0-0.6-0.3-0.7c-0.3-0.1-0.6,0-0.7,0.3c-0.1,0.3,0,0.6,0.3,0.7
			C49.7,68.2,50,68.1,50.1,67.8 M51.4,64.8L51.4,64.8c0.1-0.3,0-0.6-0.3-0.7c-0.3-0.1-0.6,0-0.7,0.3c-0.1,0.3,0,0.6,0.3,0.7
			C50.9,65.2,51.2,65.1,51.4,64.8 M52.6,61.8L52.6,61.8c0.1-0.3,0-0.6-0.3-0.7c-0.3-0.1-0.6,0-0.7,0.3c-0.1,0.3,0,0.6,0.3,0.7
			C52.2,62.2,52.5,62.1,52.6,61.8 M53.8,58.8L53.8,58.8c0.1-0.3,0-0.6-0.3-0.7c-0.3-0.1-0.6,0-0.7,0.3c-0.1,0.3,0,0.6,0.3,0.7
			C53.4,59.2,53.7,59.1,53.8,58.8"></path>
		<path class="sl0" d="M59.7,53L59.7,53c0.3-0.1,0.4-0.4,0.3-0.7c-0.1-0.3-0.4-0.4-0.7-0.3c-0.3,0.1-0.4,0.4-0.3,0.7
			C59.1,53,59.4,53.1,59.7,53 M62.6,51.9L62.6,51.9c0.3-0.1,0.4-0.4,0.3-0.7c-0.1-0.3-0.4-0.4-0.7-0.3c-0.3,0.1-0.4,0.4-0.3,0.7
			C62,51.9,62.3,52,62.6,51.9 M65.5,50.8L65.5,50.8c0.3-0.1,0.4-0.4,0.3-0.7c-0.1-0.3-0.4-0.4-0.7-0.3c-0.3,0.1-0.4,0.4-0.3,0.7
			C64.9,50.7,65.2,50.9,65.5,50.8 M68.5,49.6L68.5,49.6c0.3-0.1,0.4-0.4,0.3-0.7c-0.1-0.3-0.4-0.4-0.7-0.3c-0.3,0.1-0.4,0.4-0.3,0.7
			C67.8,49.6,68.2,49.8,68.5,49.6 M71.4,48.5L71.4,48.5c0.3-0.1,0.4-0.4,0.3-0.7c-0.1-0.3-0.4-0.4-0.7-0.3c-0.3,0.1-0.4,0.4-0.3,0.7
			C70.8,48.5,71.1,48.6,71.4,48.5"></path>
		<path class="sl0" d="M43.2,78.2L43.2,78.2c-0.2,0.2-0.3,0.5-0.1,0.8c0.2,0.2,0.5,0.3,0.8,0.1c0.2-0.2,0.3-0.5,0.1-0.8
			C43.8,78.1,43.4,78,43.2,78.2 M40.6,80.2L40.6,80.2c-0.2,0.2-0.3,0.5-0.1,0.8c0.2,0.2,0.5,0.3,0.8,0.1c0.2-0.2,0.3-0.5,0.1-0.8
			C41.2,80.1,40.8,80,40.6,80.2 M37.9,82.2L37.9,82.2c-0.2,0.2-0.3,0.5-0.1,0.8c0.2,0.2,0.5,0.3,0.8,0.1c0.2-0.2,0.3-0.5,0.1-0.8
			C38.5,82.1,38.2,82,37.9,82.2 M35.3,84.2L35.3,84.2c-0.2,0.2-0.3,0.5-0.1,0.8c0.2,0.2,0.5,0.3,0.8,0.1c0.2-0.2,0.3-0.5,0.1-0.8
			C35.9,84,35.5,84,35.3,84.2 M32.7,86.2L32.7,86.2c-0.2,0.2-0.3,0.5-0.1,0.8c0.2,0.2,0.5,0.3,0.8,0.1c0.2-0.2,0.3-0.5,0.1-0.8
			C33.3,86,32.9,86,32.7,86.2 M30,88.2L30,88.2c-0.2,0.2-0.3,0.5-0.1,0.8c0.2,0.2,0.5,0.3,0.8,0.1c0.2-0.2,0.3-0.5,0.1-0.8
			C30.6,88,30.3,88,30,88.2"></path>
		<path class="sl0" d="M30.9,91.7L30.9,91.7c0.3,0.1,0.6-0.2,0.6-0.5c0.1-0.3-0.2-0.6-0.5-0.6c-0.3-0.1-0.6,0.2-0.6,0.5
			C30.4,91.4,30.6,91.7,30.9,91.7 M34.1,92.3L34.1,92.3c0.3,0.1,0.6-0.2,0.6-0.5c0.1-0.3-0.2-0.6-0.5-0.6c-0.3-0.1-0.6,0.2-0.6,0.5
			C33.6,91.9,33.8,92.2,34.1,92.3 M37.4,92.8L37.4,92.8c0.3,0.1,0.6-0.2,0.6-0.5c0.1-0.3-0.2-0.6-0.5-0.6c-0.3-0.1-0.6,0.2-0.6,0.5
			C36.9,92.5,37.1,92.8,37.4,92.8 M40.6,93.4L40.6,93.4c0.3,0.1,0.6-0.2,0.6-0.5c0.1-0.3-0.2-0.6-0.5-0.6c-0.3-0.1-0.6,0.2-0.6,0.5
			C40.1,93,40.3,93.3,40.6,93.4 M43.9,93.9L43.9,93.9c0.3,0.1,0.6-0.2,0.6-0.5c0.1-0.3-0.2-0.6-0.5-0.6c-0.3-0.1-0.6,0.2-0.6,0.5
			C43.4,93.6,43.6,93.9,43.9,93.9 M47.1,94.5L47.1,94.5c0.3,0.1,0.6-0.2,0.6-0.5c0.1-0.3-0.2-0.6-0.5-0.6c-0.3-0.1-0.6,0.2-0.6,0.5
			C46.6,94.1,46.8,94.4,47.1,94.5 M50.4,95L50.4,95c0.3,0.1,0.6-0.2,0.6-0.5c0.1-0.3-0.2-0.6-0.5-0.6c-0.3-0.1-0.6,0.2-0.6,0.5
			C49.9,94.7,50.1,95,50.4,95"></path>
		<path class="sl0" d="M9,62.9L9,62.9c0.3,0,0.5-0.3,0.5-0.6c0-0.3-0.3-0.5-0.6-0.5c-0.3,0-0.5,0.3-0.5,0.6
			C8.4,62.7,8.7,62.9,9,62.9 M12.3,62.4L12.3,62.4c0.3,0,0.5-0.3,0.5-0.6c0-0.3-0.3-0.5-0.6-0.5c-0.3,0-0.5,0.3-0.5,0.6
			C11.7,62.2,12,62.4,12.3,62.4 M15.6,61.9L15.6,61.9c0.3,0,0.5-0.3,0.5-0.6c0-0.3-0.3-0.5-0.6-0.5c-0.3,0-0.5,0.3-0.5,0.6
			C15,61.8,15.3,62,15.6,61.9 M18.9,61.4L18.9,61.4c0.3,0,0.5-0.3,0.5-0.6c0-0.3-0.3-0.5-0.6-0.5c-0.3,0-0.5,0.3-0.5,0.6
			C18.3,61.3,18.6,61.5,18.9,61.4 M22.2,61L22.2,61c0.3,0,0.5-0.3,0.5-0.6c0-0.3-0.3-0.5-0.6-0.5c-0.3,0-0.5,0.3-0.5,0.6
			C21.6,60.8,21.8,61,22.2,61"></path>
		<path class="sl0" d="M31.5,59.4L31.5,59.4c0.3,0,0.5-0.3,0.5-0.6c0-0.3-0.3-0.5-0.6-0.5c-0.3,0-0.5,0.3-0.5,0.6
			C30.9,59.3,31.2,59.5,31.5,59.4 M34.6,58.9L34.6,58.9c0.3,0,0.5-0.3,0.5-0.6s-0.3-0.5-0.6-0.5c-0.3,0-0.5,0.3-0.5,0.6
			C34,58.7,34.3,58.9,34.6,58.9 M37.8,58.4L37.8,58.4c0.3,0,0.5-0.3,0.5-0.6c0-0.3-0.3-0.5-0.6-0.5c-0.3,0-0.5,0.3-0.5,0.6
			C37.2,58.2,37.5,58.4,37.8,58.4 M41,57.9L41,57.9c0.3,0,0.5-0.3,0.5-0.6c0-0.3-0.3-0.5-0.6-0.5c-0.3,0-0.5,0.3-0.5,0.6
			C40.4,57.7,40.7,57.9,41,57.9 M44.2,57.3L44.2,57.3c0.3,0,0.5-0.3,0.5-0.6c0-0.3-0.3-0.5-0.6-0.5c-0.3,0-0.5,0.3-0.5,0.6
			C43.6,57.2,43.9,57.4,44.2,57.3 M47.3,56.8L47.3,56.8c0.3,0,0.5-0.3,0.5-0.6c0-0.3-0.3-0.5-0.6-0.5c-0.3,0-0.5,0.3-0.5,0.6
			C46.7,56.7,47,56.9,47.3,56.8 M50.5,56.3L50.5,56.3c0.3,0,0.5-0.3,0.5-0.6c0-0.3-0.3-0.5-0.6-0.5c-0.3,0.1-0.5,0.3-0.5,0.6
			C49.9,56.1,50.2,56.3,50.5,56.3"></path>
		<path class="sl0" d="M93.1,127.8L93.1,127.8c0.1,0.3,0.5,0.4,0.7,0.2c0.3-0.1,0.4-0.5,0.2-0.7c-0.1-0.3-0.5-0.4-0.7-0.2
			C93.1,127.2,93,127.5,93.1,127.8 M94.6,130.7L94.6,130.7c0.1,0.3,0.5,0.4,0.7,0.2c0.3-0.1,0.4-0.5,0.2-0.7s-0.5-0.4-0.7-0.2
			C94.5,130.1,94.4,130.4,94.6,130.7 M96,133.5L96,133.5c0.1,0.3,0.5,0.4,0.7,0.3c0.3-0.1,0.4-0.5,0.2-0.7c-0.1-0.3-0.5-0.4-0.7-0.2
			C95.9,132.9,95.8,133.2,96,133.5 M97.4,136.3L97.4,136.3c0.1,0.3,0.5,0.4,0.7,0.2c0.3-0.1,0.4-0.5,0.2-0.7s-0.5-0.4-0.7-0.3
			C97.4,135.7,97.2,136.1,97.4,136.3 M98.8,139.2L98.8,139.2c0.1,0.3,0.5,0.4,0.7,0.2c0.3-0.1,0.4-0.5,0.2-0.7s-0.5-0.4-0.7-0.2
			C98.8,138.6,98.7,138.9,98.8,139.2"></path>
		<path class="sl0" d="M103.7,141.3L103.7,141.3c0.3-0.1,0.4-0.4,0.3-0.7c-0.1-0.3-0.4-0.4-0.7-0.3c-0.3,0.1-0.4,0.4-0.3,0.7
			C103,141.2,103.4,141.4,103.7,141.3 M106.4,140.3L106.4,140.3c0.3-0.1,0.4-0.4,0.3-0.7c-0.1-0.3-0.4-0.4-0.7-0.3
			c-0.3,0.1-0.4,0.4-0.3,0.7C105.8,140.2,106.1,140.4,106.4,140.3 M109.1,139.2L109.1,139.2c0.3-0.1,0.4-0.4,0.3-0.7
			c-0.1-0.3-0.4-0.4-0.7-0.3c-0.3,0.1-0.4,0.4-0.3,0.7C108.5,139.2,108.9,139.3,109.1,139.2"></path>
		<path class="sl0" d="M72.6,107.7L72.6,107.7c-0.2,0.2-0.2,0.6,0.1,0.8c0.2,0.2,0.6,0.2,0.8-0.1c0.2-0.2,0.2-0.6-0.1-0.8
			C73.1,107.5,72.8,107.5,72.6,107.7 M70.5,110.1L70.5,110.1c-0.2,0.2-0.2,0.6,0.1,0.8c0.2,0.2,0.6,0.2,0.8-0.1
			c0.2-0.2,0.2-0.6-0.1-0.8C71.1,109.9,70.7,109.9,70.5,110.1 M68.4,112.5L68.4,112.5c-0.2,0.2-0.2,0.6,0.1,0.8
			c0.2,0.2,0.6,0.2,0.8-0.1c0.2-0.2,0.2-0.6-0.1-0.8C69,112.3,68.6,112.3,68.4,112.5 M66.4,114.9L66.4,114.9
			c-0.2,0.2-0.2,0.6,0.1,0.8c0.2,0.2,0.6,0.2,0.8-0.1c0.2-0.2,0.2-0.6-0.1-0.8C66.9,114.7,66.6,114.7,66.4,114.9 M64.3,117.3
			L64.3,117.3c-0.2,0.2-0.2,0.6,0.1,0.8c0.2,0.2,0.6,0.2,0.8-0.1c0.2-0.2,0.2-0.6-0.1-0.8C64.8,117.1,64.5,117.1,64.3,117.3
			 M62.2,119.8L62.2,119.8c-0.2,0.2-0.2,0.6,0.1,0.8c0.2,0.2,0.6,0.2,0.8-0.1c0.2-0.2,0.2-0.6-0.1-0.8
			C62.8,119.5,62.4,119.5,62.2,119.8"></path>
		<path class="sl0" d="M64.1,123.7L64.1,123.7c0.3,0.1,0.6-0.1,0.6-0.4c0.1-0.3-0.1-0.6-0.4-0.6c-0.3-0.1-0.6,0.1-0.6,0.4
			C63.6,123.4,63.8,123.7,64.1,123.7 M67.7,124.4L67.7,124.4c0.3,0.1,0.6-0.1,0.6-0.4c0.1-0.3-0.1-0.6-0.4-0.6
			c-0.3-0.1-0.6,0.1-0.6,0.4S67.4,124.4,67.7,124.4 M71.4,125.1L71.4,125.1c0.3,0.1,0.6-0.1,0.6-0.4c0.1-0.3-0.1-0.6-0.4-0.6
			c-0.3-0.1-0.6,0.1-0.6,0.4C70.9,124.7,71.1,125,71.4,125.1"></path>
		<path class="sl0" d="M75.7,122L75.7,122c0-0.3-0.2-0.6-0.6-0.6c-0.3,0-0.6,0.2-0.6,0.6c0,0.3,0.2,0.6,0.6,0.6
			C75.4,122.5,75.7,122.3,75.7,122 M75.7,118.7L75.7,118.7c0-0.3-0.2-0.6-0.6-0.6c-0.3,0-0.6,0.2-0.6,0.6s0.2,0.6,0.6,0.6
			C75.4,119.3,75.7,119,75.7,118.7 M75.7,115.4L75.7,115.4c0-0.3-0.2-0.6-0.6-0.6c-0.3,0-0.6,0.2-0.6,0.6c0,0.3,0.2,0.6,0.6,0.6
			C75.4,116,75.7,115.7,75.7,115.4 M75.7,112.2L75.7,112.2c0-0.3-0.2-0.6-0.6-0.6c-0.3,0-0.6,0.2-0.6,0.6c0,0.3,0.2,0.6,0.6,0.6
			C75.4,112.7,75.7,112.5,75.7,112.2 M75.7,108.9L75.7,108.9c0-0.3-0.2-0.6-0.6-0.6c-0.3,0-0.6,0.2-0.6,0.6s0.2,0.6,0.6,0.6
			C75.4,109.5,75.7,109.2,75.7,108.9"></path>
		<path class="sl0" d="M76,130.4L76,130.4c0,0.3,0.2,0.6,0.5,0.6c0.3,0,0.6-0.2,0.6-0.5c0-0.3-0.2-0.6-0.5-0.6
			C76.3,129.8,76,130.1,76,130.4 M75.8,133.5L75.8,133.5c0,0.3,0.2,0.6,0.5,0.6c0.3,0,0.6-0.2,0.6-0.5c0-0.3-0.2-0.6-0.5-0.6
			C76.1,133,75.9,133.2,75.8,133.5 M75.7,136.7L75.7,136.7c0,0.3,0.2,0.6,0.5,0.6c0.3,0,0.6-0.2,0.6-0.5c0-0.3-0.2-0.6-0.5-0.6
			C75.9,136.1,75.7,136.4,75.7,136.7 M75.5,139.8L75.5,139.8c0,0.3,0.2,0.6,0.5,0.6c0.3,0,0.6-0.2,0.6-0.5s-0.2-0.6-0.5-0.6
			C75.7,139.3,75.5,139.5,75.5,139.8 M75.3,143L75.3,143c0,0.3,0.2,0.6,0.5,0.6c0.3,0,0.6-0.2,0.6-0.5c0-0.3-0.2-0.6-0.5-0.6
			C75.6,142.5,75.3,142.7,75.3,143"></path>
		<path class="sl0" d="M78.1,143.7L78.1,143.7c0.2-0.3,0.1-0.6-0.1-0.8c-0.3-0.2-0.6-0.1-0.8,0.1c-0.2,0.2-0.1,0.6,0.1,0.8
			C77.5,144,77.9,144,78.1,143.7 M80,141L80,141c0.2-0.3,0.1-0.6-0.1-0.8c-0.2-0.2-0.6-0.1-0.8,0.1c-0.2,0.3-0.1,0.6,0.1,0.8
			C79.5,141.3,79.8,141.2,80,141 M82,138.2L82,138.2c0.2-0.3,0.1-0.6-0.1-0.8c-0.3-0.2-0.6-0.1-0.8,0.1c-0.2,0.3-0.1,0.6,0.1,0.8
			C81.4,138.5,81.8,138.5,82,138.2 M83.9,135.5L83.9,135.5c0.2-0.2,0.1-0.6-0.1-0.8c-0.2-0.2-0.6-0.1-0.8,0.1
			c-0.2,0.2-0.1,0.6,0.1,0.8C83.4,135.8,83.8,135.7,83.9,135.5 M85.9,132.7L85.9,132.7c0.2-0.3,0.1-0.6-0.1-0.8
			c-0.3-0.2-0.6-0.1-0.8,0.1c-0.2,0.3-0.1,0.6,0.1,0.8C85.4,133,85.7,133,85.9,132.7 M87.8,129.9L87.8,129.9
			c0.2-0.2,0.1-0.6-0.1-0.8c-0.3-0.2-0.6-0.1-0.8,0.1c-0.2,0.2-0.1,0.6,0.1,0.8C87.3,130.3,87.7,130.2,87.8,129.9 M89.8,127.2
			L89.8,127.2c0.2-0.2,0.1-0.6-0.1-0.8c-0.2-0.2-0.6-0.1-0.8,0.1c-0.2,0.3-0.1,0.6,0.1,0.8C89.3,127.5,89.6,127.4,89.8,127.2"></path>
		<path class="sl0" d="M87.5,124.4L87.5,124.4c-0.3,0.1-0.5,0.4-0.4,0.7c0.1,0.3,0.4,0.5,0.7,0.4s0.5-0.4,0.4-0.7
			C88.1,124.5,87.8,124.3,87.5,124.4 M83.9,125.1L83.9,125.1c-0.3,0.1-0.5,0.4-0.4,0.7c0.1,0.3,0.4,0.5,0.7,0.4
			c0.3-0.1,0.5-0.4,0.4-0.7C84.5,125.3,84.2,125.1,83.9,125.1 M80.3,125.9L80.3,125.9c-0.3,0.1-0.5,0.4-0.4,0.7
			c0.1,0.3,0.4,0.5,0.7,0.4c0.3-0.1,0.5-0.4,0.4-0.7C80.9,126.1,80.6,125.9,80.3,125.9"></path>
		<path class="sl0" d="M73.8,20.7L73.8,20.7c-0.2-0.3-0.5-0.3-0.8-0.2c-0.3,0.2-0.3,0.5-0.2,0.8c0.2,0.3,0.5,0.3,0.8,0.2
			C73.9,21.3,74,20.9,73.8,20.7 M72,18L72,18c-0.2-0.3-0.5-0.3-0.8-0.2c-0.3,0.2-0.3,0.5-0.2,0.8c0.2,0.3,0.5,0.3,0.8,0.2
			C72.1,18.6,72.2,18.2,72,18 M70.2,15.3L70.2,15.3c-0.2-0.3-0.5-0.3-0.8-0.2c-0.3,0.2-0.3,0.5-0.2,0.8c0.2,0.3,0.5,0.3,0.8,0.2
			C70.3,15.9,70.4,15.5,70.2,15.3 M68.4,12.6L68.4,12.6c-0.2-0.3-0.5-0.3-0.8-0.2c-0.3,0.2-0.3,0.5-0.2,0.8c0.2,0.3,0.5,0.3,0.8,0.2
			C68.5,13.2,68.6,12.8,68.4,12.6 M66.7,9.9L66.7,9.9c-0.2-0.3-0.5-0.3-0.8-0.2c-0.3,0.2-0.3,0.5-0.2,0.8c0.2,0.3,0.5,0.3,0.8,0.2
			C66.8,10.5,66.8,10.2,66.7,9.9 M64.9,7.2L64.9,7.2c-0.2-0.3-0.5-0.3-0.8-0.2c-0.3,0.2-0.3,0.5-0.2,0.8c0.2,0.3,0.5,0.3,0.8,0.2
			C65,7.8,65.1,7.5,64.9,7.2"></path>
		<path class="sl0" d="M78.7,42.5L78.7,42.5c0.2-0.2,0.2-0.6-0.1-0.8c-0.2-0.2-0.6-0.2-0.8,0.1c-0.2,0.2-0.2,0.6,0.1,0.8
			C78.2,42.8,78.5,42.8,78.7,42.5 M80.8,40L80.8,40c0.2-0.2,0.2-0.6-0.1-0.8c-0.2-0.2-0.6-0.2-0.8,0.1c-0.2,0.2-0.2,0.6,0.1,0.8
			C80.3,40.3,80.6,40.3,80.8,40 M82.9,37.5L82.9,37.5c0.2-0.2,0.2-0.6-0.1-0.8c-0.2-0.2-0.6-0.2-0.8,0.1c-0.2,0.2-0.2,0.6,0.1,0.8
			C82.3,37.8,82.7,37.8,82.9,37.5 M85,35.1L85,35.1c0.2-0.2,0.2-0.6-0.1-0.8c-0.2-0.2-0.6-0.2-0.8,0.1c-0.2,0.2-0.2,0.6,0.1,0.8
			C84.4,35.3,84.8,35.3,85,35.1 M87.1,32.6L87.1,32.6c0.2-0.2,0.2-0.6-0.1-0.8c-0.2-0.2-0.6-0.2-0.8,0.1c-0.2,0.2-0.2,0.6,0.1,0.8
			C86.5,32.8,86.9,32.8,87.1,32.6 M89.1,30.1L89.1,30.1c0.2-0.2,0.2-0.6-0.1-0.8c-0.2-0.2-0.6-0.2-0.8,0.1c-0.2,0.2-0.2,0.6,0.1,0.8
			C88.6,30.3,88.9,30.3,89.1,30.1"></path>
		<path class="sl0" d="M87.2,26.1L87.2,26.1c-0.3,0-0.6,0.2-0.6,0.5c0,0.3,0.2,0.6,0.5,0.6c0.3,0,0.6-0.2,0.6-0.5
			C87.8,26.4,87.5,26.1,87.2,26.1 M83.6,25.5L83.6,25.5c-0.3,0-0.6,0.2-0.6,0.5c0,0.3,0.2,0.6,0.5,0.6c0.3,0,0.6-0.2,0.6-0.5
			C84.1,25.8,83.9,25.6,83.6,25.5 M79.9,24.9L79.9,24.9c-0.3,0-0.6,0.2-0.6,0.5c0,0.3,0.2,0.6,0.5,0.6c0.3,0,0.6-0.2,0.6-0.5
			C80.5,25.3,80.2,25,79.9,24.9"></path>
		<path class="sl0" d="M75.6,28.2L75.6,28.2c0,0.3,0.2,0.6,0.6,0.6c0.3,0,0.6-0.2,0.6-0.6c0-0.3-0.2-0.6-0.6-0.6
			C75.9,27.6,75.6,27.9,75.6,28.2 M75.6,31.5L75.6,31.5c0,0.3,0.2,0.6,0.6,0.6c0.3,0,0.6-0.2,0.6-0.6c0-0.3-0.2-0.6-0.6-0.6
			C75.9,30.9,75.6,31.2,75.6,31.5 M75.6,34.8L75.6,34.8c0,0.3,0.2,0.6,0.6,0.6c0.3,0,0.6-0.2,0.6-0.6c0-0.3-0.2-0.6-0.6-0.6
			C75.9,34.2,75.6,34.5,75.6,34.8 M75.6,38.1L75.6,38.1c0,0.3,0.2,0.6,0.6,0.6c0.3,0,0.6-0.2,0.6-0.6c0-0.3-0.2-0.6-0.6-0.6
			C75.9,37.5,75.6,37.8,75.6,38.1 M75.6,41.4L75.6,41.4c0,0.3,0.2,0.6,0.6,0.6c0.3,0,0.6-0.2,0.6-0.6c0-0.3-0.2-0.6-0.6-0.6
			C75.9,40.8,75.6,41.1,75.6,41.4"></path>
		<path class="sl0" d="M79.4,22.2L79.4,22.2c0.3-0.2,0.3-0.5,0.2-0.8c-0.2-0.3-0.5-0.3-0.8-0.2c-0.3,0.2-0.3,0.5-0.2,0.8
			C78.8,22.3,79.2,22.4,79.4,22.2 M82.1,20.6L82.1,20.6c0.3-0.2,0.3-0.5,0.2-0.8c-0.2-0.3-0.5-0.3-0.8-0.2c-0.3,0.2-0.3,0.5-0.2,0.8
			C81.5,20.6,81.9,20.7,82.1,20.6 M84.8,18.9L84.8,18.9c0.3-0.2,0.3-0.5,0.2-0.8c-0.2-0.3-0.5-0.3-0.8-0.2c-0.3,0.2-0.3,0.5-0.2,0.8
			C84.2,19,84.6,19.1,84.8,18.9 M87.5,17.3L87.5,17.3c0.3-0.2,0.3-0.5,0.2-0.8c-0.2-0.3-0.5-0.3-0.8-0.2c-0.3,0.2-0.3,0.5-0.2,0.8
			C86.9,17.3,87.3,17.4,87.5,17.3 M90.2,15.6L90.2,15.6c0.3-0.2,0.3-0.5,0.2-0.8c-0.2-0.3-0.5-0.3-0.8-0.2c-0.3,0.2-0.3,0.5-0.2,0.8
			C89.6,15.7,89.9,15.8,90.2,15.6 M92.9,14L92.9,14c0.3-0.2,0.3-0.5,0.2-0.8c-0.2-0.3-0.5-0.3-0.8-0.2c-0.3,0.2-0.3,0.5-0.2,0.8
			C92.3,14,92.6,14.1,92.9,14 M95.6,12.3L95.6,12.3c0.3-0.2,0.3-0.5,0.2-0.8c-0.2-0.3-0.5-0.3-0.8-0.2c-0.3,0.2-0.3,0.5-0.2,0.8
			C95,12.4,95.3,12.5,95.6,12.3 M98.3,10.7L98.3,10.7c0.3-0.2,0.3-0.5,0.2-0.8c-0.2-0.3-0.5-0.3-0.8-0.2c-0.3,0.2-0.3,0.5-0.2,0.8
			C97.7,10.8,98,10.8,98.3,10.7"></path>
		<path class="sl0" d="M104.1,10.6L104.1,10.6c0.3,0.1,0.6,0,0.7-0.3c0.1-0.3,0-0.6-0.3-0.7c-0.3-0.1-0.6,0-0.7,0.3
			C103.7,10.1,103.8,10.4,104.1,10.6 M107.7,12.1L107.7,12.1c0.3,0.1,0.6,0,0.7-0.3c0.1-0.3,0-0.6-0.3-0.7c-0.3-0.1-0.6,0-0.7,0.3
			C107.2,11.6,107.4,11.9,107.7,12.1"></path>
		<path class="sl0" d="M29,55.8L29,55.8c0.1-0.3,0-0.6-0.3-0.7c-0.3-0.1-0.6,0-0.7,0.3c-0.1,0.3,0,0.6,0.3,0.7
			C28.5,56.2,28.9,56.1,29,55.8 M30.5,52.5L30.5,52.5c0.1-0.3,0-0.6-0.3-0.7c-0.3-0.1-0.6,0-0.7,0.3c-0.1,0.3,0,0.6,0.3,0.7
			C30,52.9,30.4,52.8,30.5,52.5 M32,49.3L32,49.3c0.1-0.3,0-0.6-0.3-0.7c-0.3-0.1-0.6,0-0.7,0.3c-0.1,0.3,0,0.6,0.3,0.7
			C31.5,49.7,31.8,49.5,32,49.3"></path>
		<path class="sl0" d="M31.3,42.7L31.3,42.7c-0.2-0.2-0.5-0.3-0.8-0.1c-0.2,0.2-0.3,0.5-0.1,0.8c0.2,0.2,0.5,0.3,0.8,0.1
			C31.4,43.3,31.5,43,31.3,42.7 M29.2,40L29.2,40c-0.2-0.2-0.5-0.3-0.8-0.1c-0.2,0.2-0.3,0.5-0.1,0.8c0.2,0.2,0.5,0.3,0.8,0.1
			C29.3,40.6,29.4,40.3,29.2,40 M27.1,37.3L27.1,37.3c-0.2-0.2-0.5-0.3-0.8-0.1C26,37.4,26,37.8,26.2,38c0.2,0.2,0.5,0.3,0.8,0.1
			C27.2,37.9,27.2,37.6,27.1,37.3 M24.9,34.6L24.9,34.6c-0.2-0.2-0.5-0.3-0.8-0.1c-0.2,0.2-0.3,0.5-0.1,0.8c0.2,0.2,0.5,0.3,0.8,0.1
			C25.1,35.2,25.1,34.9,24.9,34.6 M22.8,32L22.8,32c-0.2-0.2-0.5-0.3-0.8-0.1c-0.2,0.2-0.3,0.5-0.1,0.8c0.2,0.2,0.5,0.3,0.8,0.1
			C23,32.6,23,32.2,22.8,32"></path>
		<path class="sl0" d="M35.2,41.2L35.2,41.2c0.1-0.3-0.2-0.6-0.5-0.6c-0.3-0.1-0.6,0.2-0.6,0.5c-0.1,0.3,0.2,0.6,0.5,0.6
			C34.8,41.7,35.1,41.5,35.2,41.2 M35.7,37.7L35.7,37.7c0.1-0.3-0.2-0.6-0.5-0.6c-0.3-0.1-0.6,0.2-0.6,0.5c-0.1,0.3,0.2,0.6,0.5,0.6
			C35.4,38.2,35.7,38,35.7,37.7 M36.3,34.2L36.3,34.2c0.1-0.3-0.2-0.6-0.5-0.6c-0.3-0.1-0.6,0.2-0.6,0.5c-0.1,0.3,0.2,0.6,0.5,0.6
			C36,34.7,36.3,34.5,36.3,34.2 M36.9,30.8L36.9,30.8c0.1-0.3-0.2-0.6-0.5-0.6c-0.3-0.1-0.6,0.2-0.6,0.5c-0.1,0.3,0.2,0.6,0.5,0.6
			C36.6,31.3,36.9,31.1,36.9,30.8 M37.5,27.3L37.5,27.3c0.1-0.3-0.2-0.6-0.5-0.6c-0.3-0.1-0.6,0.2-0.6,0.5c-0.1,0.3,0.2,0.6,0.5,0.6
			C37.2,27.8,37.5,27.6,37.5,27.3 M38.1,23.8L38.1,23.8c0-0.3-0.2-0.6-0.5-0.6c-0.3-0.1-0.6,0.2-0.6,0.5c-0.1,0.3,0.2,0.6,0.5,0.6
			C37.8,24.3,38,24.1,38.1,23.8 M38.7,20.3L38.7,20.3c0.1-0.3-0.2-0.6-0.5-0.6c-0.3-0.1-0.6,0.2-0.6,0.5c-0.1,0.3,0.2,0.6,0.5,0.6
			C38.3,20.8,38.6,20.6,38.7,20.3 M39.3,16.9L39.3,16.9c0.1-0.3-0.2-0.6-0.5-0.6c-0.3-0.1-0.6,0.2-0.6,0.5c-0.1,0.3,0.2,0.6,0.5,0.6
			C38.9,17.4,39.2,17.2,39.3,16.9"></path>
		<path class="sl0" d="M55.1,100.2L55.1,100.2c0.1,0.3,0.3,0.5,0.6,0.5c0.3,0,0.5-0.3,0.5-0.6c-0.1-0.3-0.3-0.5-0.6-0.5
			C55.3,99.6,55.1,99.9,55.1,100.2 M55.6,103.4L55.6,103.4c0.1,0.3,0.3,0.5,0.6,0.5c0.3-0.1,0.5-0.3,0.5-0.6c0-0.3-0.3-0.5-0.6-0.5
			C55.8,102.8,55.6,103.1,55.6,103.4 M56.2,106.6L56.2,106.6c0.1,0.3,0.3,0.5,0.6,0.5c0.3-0.1,0.5-0.3,0.5-0.6
			c-0.1-0.3-0.3-0.5-0.6-0.5C56.3,106.1,56.1,106.3,56.2,106.6 M56.7,109.9L56.7,109.9c0.1,0.3,0.3,0.5,0.6,0.5
			c0.3-0.1,0.5-0.3,0.5-0.6c-0.1-0.3-0.3-0.5-0.6-0.5C56.9,109.3,56.7,109.6,56.7,109.9 M57.3,113.1L57.3,113.1
			c0.1,0.3,0.3,0.5,0.6,0.5c0.3-0.1,0.5-0.3,0.5-0.6c-0.1-0.3-0.3-0.5-0.6-0.5C57.4,112.5,57.2,112.8,57.3,113.1 M57.8,116.3
			L57.8,116.3c0.1,0.3,0.3,0.5,0.6,0.5c0.3-0.1,0.5-0.3,0.5-0.6c-0.1-0.3-0.3-0.5-0.6-0.5C58,115.7,57.8,116,57.8,116.3 M58.4,119.5
			L58.4,119.5c0.1,0.3,0.3,0.5,0.6,0.5c0.3-0.1,0.5-0.3,0.5-0.6c-0.1-0.3-0.3-0.5-0.6-0.5C58.5,118.9,58.3,119.2,58.4,119.5"></path>
		<path class="sl0" d="M49.3,32.7L49.3,32.7c0.3-0.1,0.4-0.5,0.3-0.7c-0.1-0.3-0.5-0.4-0.7-0.3c-0.3,0.1-0.4,0.5-0.3,0.7
			C48.7,32.7,49,32.9,49.3,32.7 M52.5,31.2L52.5,31.2c0.3-0.1,0.4-0.5,0.3-0.7c-0.1-0.3-0.5-0.4-0.7-0.3c-0.3,0.1-0.4,0.5-0.3,0.7
			C51.9,31.3,52.2,31.4,52.5,31.2 M55.6,29.8L55.6,29.8c0.3-0.1,0.4-0.5,0.3-0.7c-0.1-0.3-0.5-0.4-0.7-0.3c-0.3,0.1-0.4,0.5-0.3,0.7
			C55,29.8,55.4,29.9,55.6,29.8"></path>
		<path class="sl0" d="M42.4,135.8L42.4,135.8c0.3-0.2,0.3-0.5,0.2-0.8c-0.2-0.3-0.5-0.3-0.8-0.2c-0.3,0.2-0.3,0.5-0.2,0.8
			C41.8,135.9,42.1,135.9,42.4,135.8 M45.1,133.9L45.1,133.9c0.3-0.2,0.3-0.5,0.2-0.8c-0.2-0.3-0.5-0.3-0.8-0.2
			c-0.3,0.2-0.3,0.5-0.2,0.8C44.5,134,44.9,134.1,45.1,133.9 M47.9,132.1L47.9,132.1c0.3-0.2,0.3-0.5,0.2-0.8
			c-0.2-0.3-0.5-0.3-0.8-0.2c-0.3,0.2-0.3,0.5-0.2,0.8C47.3,132.2,47.6,132.3,47.9,132.1 M50.6,130.2L50.6,130.2
			c0.3-0.2,0.3-0.5,0.2-0.8c-0.2-0.3-0.5-0.3-0.8-0.2c-0.3,0.2-0.3,0.5-0.2,0.8C50,130.4,50.4,130.4,50.6,130.2 M53.4,128.4
			L53.4,128.4c0.3-0.2,0.3-0.5,0.2-0.8c-0.2-0.3-0.5-0.3-0.8-0.2c-0.3,0.2-0.3,0.5-0.2,0.8C52.8,128.5,53.1,128.6,53.4,128.4
			 M56.1,126.6L56.1,126.6c0.3-0.2,0.3-0.5,0.2-0.8c-0.2-0.3-0.5-0.3-0.8-0.2c-0.3,0.2-0.3,0.5-0.2,0.8
			C55.5,126.7,55.9,126.7,56.1,126.6"></path>
		<path class="sl0" d="M55.8,23.7L55.8,23.7c-0.3-0.2-0.6-0.1-0.8,0.1c-0.2,0.3-0.1,0.6,0.1,0.8c0.3,0.2,0.6,0.1,0.8-0.1
			C56.1,24.3,56,23.9,55.8,23.7 M53.2,22L53.2,22c-0.3-0.2-0.6-0.1-0.8,0.1c-0.2,0.3-0.1,0.6,0.1,0.8c0.3,0.2,0.6,0.1,0.8-0.1
			C53.5,22.5,53.4,22.2,53.2,22 M50.6,20.2L50.6,20.2c-0.3-0.2-0.6-0.1-0.8,0.1c-0.2,0.3-0.1,0.6,0.1,0.8c0.3,0.2,0.6,0.1,0.8-0.1
			C50.9,20.7,50.8,20.4,50.6,20.2 M48,18.4L48,18.4c-0.3-0.2-0.6-0.1-0.8,0.1c-0.2,0.3-0.1,0.6,0.1,0.8c0.3,0.2,0.6,0.1,0.8-0.1
			C48.3,19,48.2,18.6,48,18.4 M45.4,16.7L45.4,16.7c-0.3-0.2-0.6-0.1-0.8,0.1c-0.2,0.3-0.1,0.6,0.1,0.8c0.3,0.2,0.6,0.1,0.8-0.1
			C45.7,17.2,45.6,16.8,45.4,16.7 M42.8,14.9L42.8,14.9c-0.3-0.2-0.6-0.1-0.8,0.1c-0.2,0.3-0.1,0.6,0.1,0.8c0.3,0.2,0.6,0.1,0.8-0.1
			C43.1,15.4,43,15.1,42.8,14.9"></path>
		<path class="sl0" d="M28.1,95.3L28.1,95.3c0.1,0.3,0.5,0.4,0.7,0.3c0.3-0.1,0.4-0.5,0.3-0.7c-0.1-0.3-0.5-0.4-0.7-0.3
			C28.1,94.7,28,95,28.1,95.3 M29.7,98.7L29.7,98.7c0.1,0.3,0.5,0.4,0.7,0.3c0.3-0.1,0.4-0.5,0.3-0.7c-0.1-0.3-0.5-0.4-0.7-0.3
			C29.7,98,29.6,98.4,29.7,98.7 M31.3,102L31.3,102c0.1,0.3,0.5,0.4,0.7,0.3c0.3-0.1,0.4-0.5,0.3-0.7c-0.1-0.3-0.5-0.4-0.7-0.3
			C31.2,101.4,31.1,101.7,31.3,102"></path>
		<path class="sl0" d="M30.7,107.4L30.7,107.4c-0.2,0.2-0.2,0.6,0.1,0.8c0.2,0.2,0.6,0.2,0.8-0.1c0.2-0.2,0.2-0.6-0.1-0.8
			C31.3,107.2,30.9,107.2,30.7,107.4 M28.5,110.1L28.5,110.1c-0.2,0.2-0.2,0.6,0.1,0.8c0.2,0.2,0.6,0.2,0.8-0.1s0.2-0.6-0.1-0.8
			C29.1,109.8,28.7,109.9,28.5,110.1 M26.4,112.8L26.4,112.8c-0.2,0.2-0.2,0.6,0.1,0.8c0.2,0.2,0.6,0.2,0.8-0.1
			c0.2-0.2,0.2-0.6-0.1-0.8C26.9,112.5,26.6,112.6,26.4,112.8 M24.2,115.5L24.2,115.5c-0.2,0.2-0.2,0.6,0.1,0.8
			c0.2,0.2,0.6,0.2,0.8-0.1c0.2-0.2,0.2-0.6-0.1-0.8C24.7,115.2,24.4,115.2,24.2,115.5 M22,118.1L22,118.1c-0.2,0.2-0.2,0.6,0.1,0.8
			c0.2,0.2,0.6,0.2,0.8-0.1c0.2-0.2,0.2-0.6-0.1-0.8C22.6,117.9,22.2,117.9,22,118.1"></path>
		<path class="sl0" d="M18.9,118.3L18.9,118.3c-0.2-0.3-0.5-0.3-0.8-0.1c-0.3,0.2-0.3,0.5-0.1,0.8c0.2,0.3,0.5,0.3,0.8,0.1
			C19.1,118.9,19.1,118.6,18.9,118.3 M17.2,115.8L17.2,115.8c-0.2-0.3-0.5-0.3-0.8-0.1c-0.3,0.2-0.3,0.5-0.1,0.8
			c0.2,0.3,0.5,0.3,0.8,0.1C17.3,116.4,17.3,116,17.2,115.8 M15.4,113.2L15.4,113.2c-0.2-0.3-0.5-0.3-0.8-0.1
			c-0.3,0.2-0.3,0.5-0.1,0.8c0.2,0.3,0.5,0.3,0.8,0.1C15.5,113.8,15.5,113.5,15.4,113.2"></path>
		<path class="sl0" d="M43,72L43,72c-0.2-0.2-0.6-0.1-0.8,0.1c-0.2,0.2-0.1,0.6,0.1,0.8c0.2,0.2,0.6,0.1,0.8-0.1
			C43.3,72.6,43.3,72.2,43,72 M40.4,70L40.4,70c-0.2-0.2-0.6-0.1-0.8,0.1c-0.2,0.2-0.1,0.6,0.1,0.8c0.2,0.2,0.6,0.1,0.8-0.1
			C40.7,70.5,40.7,70.2,40.4,70 M37.8,67.9L37.8,67.9c-0.2-0.2-0.6-0.1-0.8,0.1c-0.2,0.2-0.1,0.6,0.1,0.8s0.6,0.1,0.8-0.1
			C38.1,68.5,38.1,68.1,37.8,67.9 M35.2,65.9L35.2,65.9c-0.2-0.2-0.6-0.1-0.8,0.1c-0.2,0.2-0.1,0.6,0.1,0.8c0.2,0.2,0.6,0.1,0.8-0.1
			C35.5,66.4,35.5,66.1,35.2,65.9 M32.6,63.8L32.6,63.8c-0.2-0.2-0.6-0.1-0.8,0.1c-0.2,0.2-0.1,0.6,0.1,0.8c0.2,0.2,0.6,0.1,0.8-0.1
			C32.9,64.4,32.9,64,32.6,63.8 M30,61.8L30,61.8c-0.2-0.2-0.6-0.1-0.8,0.1s-0.1,0.6,0.1,0.8c0.2,0.2,0.6,0.1,0.8-0.1
			C30.3,62.3,30.3,62,30,61.8"></path>
		<path class="sl0" d="M25.8,63.5L25.8,63.5c-0.1,0.3,0.1,0.6,0.4,0.7c0.3,0.1,0.6-0.1,0.7-0.4c0.1-0.3-0.1-0.6-0.4-0.7
			C26.1,63,25.8,63.2,25.8,63.5 M25,67L25,67c-0.1,0.3,0.1,0.6,0.4,0.7c0.3,0.1,0.6-0.1,0.7-0.4c0.1-0.3-0.1-0.6-0.4-0.7
			C25.4,66.5,25.1,66.7,25,67 M24.2,70.5L24.2,70.5c-0.1,0.3,0.1,0.6,0.4,0.7c0.3,0.1,0.6-0.1,0.7-0.4c0.1-0.3-0.1-0.6-0.4-0.7
			C24.6,70,24.3,70.2,24.2,70.5"></path>
		<path class="sl0" d="M21.6,72L21.6,72c-0.3-0.2-0.6-0.1-0.8,0.2c-0.2,0.3-0.1,0.6,0.2,0.8c0.3,0.2,0.6,0.1,0.8-0.2
			C21.9,72.5,21.8,72.2,21.6,72 M18.8,70.5L18.8,70.5c-0.3-0.2-0.6-0.1-0.8,0.2c-0.2,0.3-0.1,0.6,0.2,0.8c0.3,0.2,0.6,0.1,0.8-0.2
			C19.2,71,19.1,70.7,18.8,70.5 M16.1,69L16.1,69c-0.3-0.2-0.6-0.1-0.8,0.2c-0.2,0.3-0.1,0.6,0.2,0.8s0.6,0.1,0.8-0.2
			C16.5,69.5,16.4,69.1,16.1,69 M13.4,67.4L13.4,67.4c-0.3-0.2-0.6-0.1-0.8,0.2c-0.2,0.3-0.1,0.6,0.2,0.8c0.3,0.2,0.6,0.1,0.8-0.2
			C13.8,67.9,13.7,67.6,13.4,67.4 M10.7,65.9L10.7,65.9c-0.3-0.2-0.6-0.1-0.8,0.2c-0.2,0.3-0.1,0.6,0.2,0.8c0.3,0.2,0.6,0.1,0.8-0.2
			C11.1,66.4,11,66.1,10.7,65.9 M8,64.4L8,64.4c-0.3-0.2-0.6-0.1-0.8,0.2c-0.2,0.3-0.1,0.6,0.2,0.8c0.3,0.2,0.6,0.1,0.8-0.2
			C8.4,64.9,8.3,64.5,8,64.4"></path>
		<path class="sl0" d="M4,67.1L4,67.1c0,0.3,0.2,0.6,0.5,0.6c0.3,0,0.6-0.2,0.6-0.5c0-0.3-0.2-0.6-0.5-0.6C4.3,66.6,4,66.8,4,67.1
			 M3.5,71L3.5,71c0,0.3,0.2,0.6,0.5,0.6c0.3,0,0.6-0.2,0.6-0.5c0-0.3-0.2-0.6-0.5-0.6C3.8,70.5,3.5,70.7,3.5,71"></path>
		<path class="sl0" d="M73.5,4c-0.2-1.1,0.6-2.2,1.7-2.4c1.1-0.2,2.2,0.6,2.4,1.7c0.2,1.1-0.6,2.2-1.7,2.4v0c-0.1,0-0.2,0-0.4,0
			C74.6,5.7,73.7,5,73.5,4"></path>
		<path class="sl1" d="M73.5,147c-0.2-1.1,0.6-2.2,1.7-2.4c1.1-0.2,2.2,0.6,2.4,1.7c0.2,1.1-0.6,2.2-1.7,2.4v0c-0.1,0-0.2,0-0.4,0
			C74.6,148.7,73.7,148,73.5,147"></path>
		<path class="sl1" d="M72.9,126.9c-0.5-1.5,0.3-3,1.8-3.5c1.5-0.5,3,0.3,3.5,1.8c0.5,1.5-0.3,3-1.8,3.5c-0.3,0.1-0.6,0.1-0.9,0.1
			C74.4,128.8,73.3,128.1,72.9,126.9"></path>
		<path class="sl2" d="M21.5,76c-0.5-1.5,0.3-3,1.8-3.5c1.5-0.5,3,0.3,3.5,1.8c0.5,1.5-0.3,3-1.8,3.5c-0.3,0.1-0.6,0.1-0.9,0.1
			C23,77.9,21.9,77.2,21.5,76"></path>
		<path class="sl3" d="M73.1,48.6c-1.4-1.4-1.4-3.6,0-4.9c1.4-1.3,3.6-1.3,4.9,0c1.3,1.4,1.3,3.6,0,4.9c-0.7,0.7-1.6,1-2.5,1
			C74.7,49.6,73.8,49.2,73.1,48.6"></path>
		<path class="sl2" d="M44,77.6c-1.4-1.4-1.4-3.6,0-4.9c1.4-1.3,3.6-1.3,4.9,0c1.3,1.4,1.3,3.6,0,4.9c-0.7,0.7-1.6,1-2.5,1
			C45.6,78.6,44.7,78.3,44,77.6"></path>
		<path class="sl3" d="M60.5,5.1C60.3,4,61,2.9,62.2,2.7c1.1-0.2,2.2,0.6,2.4,1.7c0.2,1.1-0.6,2.2-1.7,2.4v0c-0.1,0-0.2,0-0.4,0
			C61.5,6.8,60.7,6.1,60.5,5.1"></path>
		<path class="sl0" d="M90.6,5.1C90.8,4,90,2.9,88.9,2.7c-1.1-0.2-2.2,0.6-2.4,1.7c-0.2,1.1,0.6,2.2,1.7,2.4v0c0.1,0,0.2,0,0.4,0
			C89.5,6.8,90.4,6.1,90.6,5.1"></path>
		<path class="sl0" d="M48.5,8.7c-0.4-1.1,0.2-2.3,1.2-2.7c1.1-0.4,2.3,0.2,2.7,1.3c0.4,1.1-0.2,2.3-1.2,2.7C51,10,50.7,10,50.5,10
			C49.6,10,48.8,9.5,48.5,8.7"></path>
		<path class="sl3" d="M102.5,8.7c0.4-1.1-0.2-2.3-1.2-2.7c-1.1-0.4-2.3,0.2-2.7,1.3c-0.4,1.1,0.2,2.3,1.2,2.7
			c0.2,0.1,0.5,0.1,0.7,0.1C101.5,10,102.2,9.5,102.5,8.7"></path>
		<path class="sl4" d="M41,12.2c0.6,1,0.2,2.3-0.8,2.9v0c-0.3,0.2-0.7,0.3-1,0.3c-0.7,0-1.4-0.4-1.8-1c-0.6-1-0.2-2.3,0.8-2.8
			C39.2,10.8,40.4,11.2,41,12.2"></path>
		<path class="sl3" d="M110.1,12.2c-0.6,1-0.2,2.3,0.8,2.9v0c0.3,0.2,0.7,0.3,1,0.3c0.7,0,1.4-0.4,1.8-1c0.6-1,0.2-2.3-0.8-2.8
			C111.9,10.8,110.7,11.2,110.1,12.2"></path>
		<path class="sl0" d="M27.4,21.7c-0.7-0.9-0.6-2.2,0.3-2.9c0.9-0.8,2.2-0.6,2.9,0.3c0.7,0.9,0.6,2.2-0.3,2.9
			c-0.4,0.3-0.9,0.5-1.3,0.5C28.4,22.5,27.8,22.2,27.4,21.7"></path>
		<path class="sl3" d="M72.9,25.1c-0.5-1.5,0.3-3,1.8-3.5c1.5-0.5,3,0.3,3.5,1.8c0.5,1.5-0.3,3-1.8,3.5C76.1,27,75.8,27,75.5,27
			C74.4,27,73.3,26.3,72.9,25.1"></path>
		<path class="sl4" d="M56.7,27.6c-0.5-1.5,0.3-3,1.8-3.5c1.5-0.5,3,0.3,3.5,1.8c0.5,1.5-0.3,3-1.8,3.5c-0.3,0.1-0.6,0.1-0.9,0.1
			C58.2,29.5,57.1,28.8,56.7,27.6"></path>
		<path class="sl3" d="M94.4,27.6c0.5-1.5-0.3-3-1.8-3.5c-1.5-0.5-3,0.3-3.5,1.8c-0.5,1.5,0.3,3,1.8,3.5c0.3,0.1,0.6,0.1,0.9,0.1
			C92.9,29.5,94,28.8,94.4,27.6"></path>
		<path class="sl4" d="M42.9,35.6c-0.9-1.2-0.6-3,0.6-3.9c1.2-0.9,3-0.6,3.9,0.6c0.9,1.2,0.6,3-0.6,3.9c-0.5,0.4-1.1,0.5-1.6,0.5
			C44.3,36.8,43.5,36.4,42.9,35.6"></path>
		<path class="sl2" d="M18.8,30.8c-0.9-0.7-1-2.1-0.2-2.9c0.7-0.9,2-1,2.9-0.3c0.9,0.8,1,2.1,0.3,2.9c-0.4,0.5-1,0.7-1.6,0.7
			C19.7,31.3,19.2,31.1,18.8,30.8"></path>
		<path class="sl2" d="M32.3,47.5c-1.2-0.9-1.5-2.6-0.6-3.9c0.9-1.2,2.6-1.5,3.9-0.6c1.2,0.9,1.5,2.6,0.6,3.9h0
			c-0.6,0.8-1.4,1.1-2.3,1.1C33.3,48,32.8,47.9,32.3,47.5"></path>
		<path class="sl0" d="M12,41.2c-1-0.6-1.3-1.8-0.8-2.9c0.6-1,1.8-1.3,2.9-0.8c1,0.6,1.3,1.8,0.8,2.9c-0.4,0.7-1.1,1-1.8,1
			C12.7,41.5,12.3,41.4,12,41.2"></path>
		<path class="sl4" d="M52.5,57.1c-1.4-1.4-1.4-3.6,0-4.9c1.4-1.3,3.6-1.3,4.9,0c1.3,1.4,1.3,3.6,0,4.9c-0.7,0.7-1.6,1-2.5,1
			C54.1,58.1,53.2,57.8,52.5,57.1"></path>
		<path class="sl2" d="M25.8,62.1c-1.5-0.5-2.3-2-1.8-3.5c0.5-1.5,2-2.3,3.5-1.8c1.5,0.5,2.3,2,1.8,3.5c-0.4,1.2-1.5,1.9-2.6,1.9
			C26.4,62.2,26.1,62.2,25.8,62.1"></path>
		<path class="sl0" d="M7,52.6c-1.1-0.4-1.6-1.6-1.3-2.7c0.4-1.1,1.6-1.6,2.7-1.3c1.1,0.4,1.6,1.6,1.2,2.7c-0.3,0.8-1.1,1.4-2,1.4
			C7.5,52.8,7.3,52.7,7,52.6"></path>
		<path class="sl2" d="M4.2,64.8c-1.1-0.2-1.9-1.3-1.7-2.4c0.2-1.1,1.3-1.9,2.4-1.7c1.1,0.2,1.9,1.3,1.7,2.4c-0.2,1-1.1,1.7-2,1.7
			C4.4,64.8,4.3,64.8,4.2,64.8"></path>
		<path class="sl2" d="M1.4,75.5c-0.2-1.1,0.6-2.2,1.7-2.4c1.1-0.2,2.2,0.6,2.4,1.7c0.2,1.1-0.6,2.2-1.7,2.4v0c-0.1,0-0.2,0-0.4,0
			C2.4,77.2,1.6,76.5,1.4,75.5"></path>
		<path class="sl0" d="M2.5,87.9L2.5,87.9c-0.2-1.1,0.6-2.2,1.7-2.4c1.1-0.2,2.2,0.6,2.4,1.7c0.2,1.1-0.6,2.2-1.7,2.4
			c-0.1,0-0.2,0-0.3,0C3.5,89.7,2.6,88.9,2.5,87.9"></path>
		<path class="sl5" d="M24,91.7L24,91.7c-0.5-1.5,0.3-3,1.8-3.5c1.5-0.5,3,0.3,3.5,1.8c0.5,1.5-0.3,3-1.8,3.5
			c-0.3,0.1-0.6,0.1-0.9,0.1C25.5,93.7,24.4,92.9,24,91.7"></path>
		<path class="sl5" d="M52.5,98.1L52.5,98.1c-1.4-1.4-1.4-3.6,0-4.9c1.4-1.4,3.6-1.4,4.9,0c1.3,1.4,1.3,3.6,0,4.9
			c-0.7,0.7-1.6,1-2.5,1C54.1,99.2,53.2,98.8,52.5,98.1"></path>
		<path class="sl1" d="M73.1,106.6c-1.4-1.4-1.4-3.6,0-4.9c1.4-1.3,3.6-1.3,4.9,0c1.3,1.4,1.3,3.6,0,4.9c-0.7,0.7-1.6,1-2.5,1
			C74.7,107.6,73.8,107.3,73.1,106.6"></path>
		<path class="sl0" d="M5.8,100.3C5.4,99.2,5.9,98,7,97.6c1.1-0.4,2.3,0.2,2.7,1.3c0.4,1.1-0.2,2.3-1.3,2.7
			c-0.2,0.1-0.5,0.1-0.7,0.1C6.9,101.7,6.1,101.2,5.8,100.3"></path>
		<path class="sl5" d="M11.2,111.9c-0.6-1-0.2-2.3,0.8-2.8c1-0.6,2.3-0.2,2.9,0.8c0.6,1,0.2,2.3-0.8,2.9c-0.3,0.2-0.7,0.3-1,0.3
			C12.3,113,11.6,112.6,11.2,111.9"></path>
		<path class="sl5" d="M18.6,122.5c-0.7-0.9-0.6-2.2,0.3-2.9c0.9-0.7,2.2-0.6,2.9,0.3c0.7,0.9,0.6,2.2-0.2,2.9
			c-0.4,0.3-0.9,0.5-1.4,0.5C19.6,123.2,19,122.9,18.6,122.5"></path>
		<path class="sl0" d="M27.7,131.5c-0.9-0.7-1-2.1-0.3-2.9c0.8-0.9,2.1-1,2.9-0.3c0.9,0.7,1,2,0.2,2.9c-0.4,0.5-1,0.7-1.6,0.7
			C28.5,132,28,131.8,27.7,131.5"></path>
		<path class="sl5" d="M31.7,106.7c-0.9-1.2-0.6-3,0.6-3.9c1.2-0.9,3-0.6,3.9,0.6c0.9,1.2,0.6,3-0.6,3.9c-0.5,0.4-1.1,0.5-1.6,0.5
			C33.1,107.8,32.2,107.4,31.7,106.7"></path>
		<path class="sl0" d="M43.5,118.6c-1.2-0.9-1.5-2.7-0.6-3.9c0.9-1.2,2.6-1.5,3.9-0.6c1.2,0.9,1.5,2.6,0.6,3.9
			c-0.5,0.7-1.4,1.1-2.3,1.1C44.6,119.1,44,118.9,43.5,118.6"></path>
		<path class="sl1" d="M58.5,126.2c-1.5-0.5-2.3-2-1.8-3.5c0.5-1.5,2-2.3,3.5-1.8c1.5,0.5,2.3,2,1.8,3.5c-0.4,1.2-1.5,1.9-2.7,1.9
			C59.1,126.3,58.8,126.3,58.5,126.2"></path>
		<path class="sl1" d="M92.6,126.2c1.5-0.5,2.3-2,1.8-3.5c-0.5-1.5-2-2.3-3.5-1.8c-1.5,0.5-2.3,2-1.8,3.5c0.4,1.2,1.5,1.9,2.7,1.9
			C92,126.3,92.3,126.3,92.6,126.2"></path>
		<path class="sl1" d="M38.2,138.9c-1-0.6-1.3-1.8-0.8-2.8c0.6-1,1.9-1.3,2.9-0.8c1,0.6,1.3,1.8,0.8,2.8c-0.4,0.7-1.1,1-1.8,1
			C38.8,139.2,38.5,139.1,38.2,138.9"></path>
		<path class="sl1" d="M112.9,138.9c1-0.6,1.3-1.8,0.8-2.8c-0.6-1-1.8-1.3-2.9-0.8c-1,0.6-1.3,1.8-0.8,2.8c0.4,0.7,1.1,1,1.8,1
			C112.3,139.2,112.6,139.1,112.9,138.9"></path>
		<path class="sl0" d="M49.8,144.3c-1.1-0.4-1.7-1.6-1.3-2.7c0.4-1.1,1.6-1.6,2.7-1.3c1.1,0.4,1.6,1.6,1.3,2.7
			c-0.3,0.8-1.1,1.4-2,1.4C50.3,144.4,50,144.4,49.8,144.3"></path>
		<path class="sl1" d="M101.3,144.3c1.1-0.4,1.7-1.6,1.3-2.7c-0.4-1.1-1.6-1.6-2.7-1.3c-1.1,0.4-1.6,1.6-1.3,2.7
			c0.3,0.8,1.1,1.4,2,1.4C100.8,144.4,101.1,144.4,101.3,144.3"></path>
		<path class="sl0" d="M62.2,147.6c-1.1-0.2-1.9-1.3-1.7-2.4c0.2-1.1,1.3-1.9,2.4-1.7c1.1,0.2,1.9,1.3,1.7,2.4
			c-0.2,1-1.1,1.7-2.1,1.7C62.4,147.7,62.3,147.6,62.2,147.6"></path>
		<path class="sl0" d="M88.9,147.6c1.1-0.2,1.9-1.3,1.7-2.4c-0.2-1.1-1.3-1.9-2.4-1.7c-1.1,0.2-1.9,1.3-1.7,2.4
			c0.2,1,1.1,1.7,2.1,1.7C88.7,147.7,88.8,147.6,88.9,147.6"></path>
	</g>
	<g>
		<polygon class="sl0" points="140.7,55.5 155.4,55.5 155.4,51.9 140.7,51.9 140.7,42.3 156.5,42.3 156.5,38.8 136.8,38.8
			136.8,69.9 157.3,69.9 157.3,66.4 140.7,66.4 		"></polygon>
		<path class="sl0" d="M129,62.8L129,62.8c-1.1,1.4-2.4,2.5-3.9,3.3c-1.5,0.7-3.2,1.1-5,1.1c-1.7,0-3.3-0.3-4.8-1
			c-1.4-0.7-2.7-1.6-3.7-2.7c-1-1.1-1.8-2.5-2.4-4.1c-0.6-1.5-0.9-3.2-0.9-5c0-1.7,0.3-3.3,0.9-4.9c0.6-1.5,1.4-2.9,2.4-4.1
			c1-1.2,2.3-2.1,3.7-2.8c1.4-0.7,3-1,4.7-1c1.5,0,2.9,0.3,4.3,0.9c1.4,0.6,2.5,1.6,3.4,2.8l0,0.1l3.3-2.4l0-0.1
			c-1.3-1.7-3-3-4.9-3.7c-1.9-0.8-4-1.1-6.1-1.1c-2.3,0-4.5,0.4-6.4,1.3c-1.9,0.8-3.6,2-5,3.5c-1.4,1.5-2.5,3.2-3.3,5.2
			c-0.8,2-1.2,4.1-1.2,6.4c0,2.4,0.4,4.6,1.2,6.6c0.8,2,1.9,3.7,3.3,5.2c1.4,1.4,3.1,2.6,5,3.4c1.9,0.8,4,1.2,6.2,1.2
			c2.5,0,4.7-0.4,6.7-1.3c2-0.9,3.7-2.3,5.1-4.1l0-0.1L129,62.8L129,62.8z"></path>
		<path class="sl0" d="M243.7,55.5h6.2c0.9,0,1.8,0.1,2.7,0.3c0.9,0.2,1.7,0.5,2.3,0.9c0.7,0.4,1.2,1,1.6,1.7
			c0.4,0.7,0.6,1.6,0.6,2.7c0,1-0.2,1.8-0.6,2.5c-0.4,0.7-1,1.2-1.7,1.6c-0.7,0.4-1.5,0.7-2.4,0.9c-0.9,0.2-1.8,0.3-2.7,0.3h-6.2
			V55.5z M255.1,49.5c-0.4,0.6-0.9,1.2-1.6,1.5c-0.7,0.4-1.4,0.6-2.2,0.7c-0.8,0.1-1.7,0.2-2.6,0.2h-5v-9.6h5.4
			c0.8,0,1.6,0.1,2.4,0.2c0.8,0.1,1.5,0.4,2.1,0.7c0.6,0.3,1.1,0.8,1.5,1.4c0.4,0.6,0.6,1.4,0.6,2.3C255.7,48,255.5,48.9,255.1,49.5
			 M260.8,58.3c-0.4-0.9-0.8-1.7-1.5-2.4c-0.6-0.7-1.4-1.2-2.3-1.7c-0.8-0.4-1.7-0.7-2.7-0.8c1.6-0.5,2.9-1.3,3.9-2.5
			c1-1.2,1.5-2.7,1.5-4.5c0-1.4-0.3-2.7-0.9-3.6c-0.6-1-1.4-1.8-2.4-2.4c-1-0.6-2.1-1-3.3-1.3c-1.2-0.3-2.5-0.4-3.8-0.4h-9.5v31.1
			h9.3c1.4,0,2.9-0.1,4.3-0.4s2.8-0.7,3.9-1.4c1.2-0.7,2.1-1.6,2.8-2.7c0.7-1.1,1.1-2.6,1.1-4.3C261.4,60.2,261.2,59.2,260.8,58.3"></path>
		<rect x="160.9" y="52.2" class="sl0" width="10.9" height="3.3"></rect>
		<polygon class="sl0" points="197.7,51.9 181.2,51.9 181.2,38.8 177.4,38.8 177.4,69.9 181.2,69.9 181.2,55.5 197.7,55.5
			197.7,69.9 201.5,69.9 201.5,38.8 197.7,38.8 		"></polygon>
		<path class="sl0" d="M228.6,57.5c0,1.2-0.1,2.5-0.4,3.6c-0.3,1.2-0.7,2.2-1.3,3.1c-0.6,0.9-1.4,1.6-2.4,2.1
			c-1,0.5-2.3,0.8-3.8,0.8s-2.8-0.3-3.8-0.8c-1-0.5-1.8-1.3-2.4-2.1c-0.6-0.9-1-1.9-1.3-3.1c-0.3-1.2-0.4-2.4-0.4-3.6V38.8h-3.8V58
			c0,1.7,0.2,3.3,0.6,4.8c0.4,1.5,1.1,2.9,2,4c0.9,1.2,2.1,2.1,3.6,2.8c1.5,0.7,3.3,1,5.5,1c2.1,0,4-0.3,5.5-1
			c1.5-0.7,2.7-1.6,3.6-2.8c0.9-1.2,1.6-2.5,2-4c0.4-1.5,0.6-3.1,0.6-4.8V38.8h-3.8V57.5z"></path>
		<rect x="104.1" y="79.3" class="sl0" width="157" height="0.5"></rect>
		<path class="sl0" d="M170.4,104.6c-0.2-0.2-0.4-0.4-0.7-0.5c-0.3-0.1-0.6-0.2-0.9-0.2c-0.2,0-0.4,0-0.6,0.1
			c-0.2,0.1-0.4,0.1-0.5,0.2c-0.2,0.1-0.3,0.2-0.4,0.3c-0.1,0.1-0.1,0.2-0.2,0.2c0-0.1,0-0.2,0-0.3c0-0.2,0-0.3,0-0.4v-0.1h-1v0.1
			c0,0.2,0,0.4,0,0.6c0,0.2,0,0.5,0,0.7v4.1h1v-2.7c0-0.3,0-0.6,0.1-0.8c0.1-0.2,0.2-0.5,0.3-0.6c0.1-0.2,0.3-0.3,0.5-0.4
			c0.2-0.1,0.4-0.1,0.7-0.1c0.4,0,0.7,0.1,0.9,0.4c0.2,0.2,0.3,0.6,0.3,1v3.3h1v-3.4c0-0.3,0-0.6-0.1-0.9
			C170.7,105,170.6,104.8,170.4,104.6"></path>
		<rect x="112.7" y="104.1" class="sl0" width="1" height="5.5"></rect>
		<path class="sl0" d="M110.7,107.6c-0.3,0.4-0.6,0.6-1,0.8c-0.4,0.2-0.8,0.3-1.3,0.3c-0.4,0-0.9-0.1-1.2-0.3
			c-0.4-0.2-0.7-0.4-1-0.7c-0.3-0.3-0.5-0.7-0.6-1.1c-0.2-0.4-0.2-0.8-0.2-1.3c0-0.4,0.1-0.9,0.2-1.3c0.1-0.4,0.4-0.8,0.6-1.1
			c0.3-0.3,0.6-0.5,1-0.7c0.4-0.2,0.8-0.3,1.2-0.3c0.4,0,0.8,0.1,1.1,0.2c0.4,0.2,0.6,0.4,0.9,0.7l0,0l0.9-0.7l0,0
			c-0.4-0.5-0.8-0.8-1.3-1c-0.5-0.2-1.1-0.3-1.6-0.3c-0.6,0-1.2,0.1-1.7,0.3c-0.5,0.2-1,0.5-1.3,0.9c-0.4,0.4-0.7,0.8-0.9,1.4
			c-0.2,0.5-0.3,1.1-0.3,1.7c0,0.6,0.1,1.2,0.3,1.7c0.2,0.5,0.5,1,0.9,1.4c0.4,0.4,0.8,0.7,1.3,0.9c0.5,0.2,1.1,0.3,1.7,0.3
			c0.7,0,1.3-0.1,1.8-0.3c0.5-0.2,1-0.6,1.3-1.1l0,0L110.7,107.6L110.7,107.6z"></path>
		<path class="sl0" d="M163.8,106.8c0,0.3,0,0.5-0.1,0.8c-0.1,0.2-0.2,0.4-0.4,0.6c-0.2,0.2-0.4,0.3-0.6,0.4
			c-0.2,0.1-0.5,0.2-0.8,0.2c-0.3,0-0.5-0.1-0.8-0.2c-0.2-0.1-0.4-0.2-0.6-0.4c-0.2-0.2-0.3-0.4-0.4-0.6c-0.1-0.2-0.1-0.5-0.1-0.8
			c0-0.3,0-0.5,0.1-0.8c0.1-0.2,0.2-0.4,0.4-0.6c0.2-0.2,0.4-0.3,0.6-0.4c0.2-0.1,0.5-0.2,0.8-0.2c0.3,0,0.5,0.1,0.8,0.2
			c0.2,0.1,0.4,0.2,0.6,0.4c0.2,0.2,0.3,0.4,0.4,0.6C163.8,106.3,163.8,106.6,163.8,106.8 M164,104.7c-0.3-0.3-0.6-0.5-0.9-0.6
			c-0.4-0.1-0.8-0.2-1.2-0.2c-0.4,0-0.8,0.1-1.2,0.2c-0.4,0.1-0.7,0.3-0.9,0.6c-0.3,0.3-0.5,0.6-0.6,0.9c-0.1,0.4-0.2,0.7-0.2,1.2
			c0,0.4,0.1,0.8,0.2,1.2c0.1,0.3,0.4,0.7,0.6,0.9c0.3,0.3,0.6,0.5,0.9,0.6c0.4,0.1,0.7,0.2,1.2,0.2c0.4,0,0.8-0.1,1.2-0.2
			c0.4-0.1,0.7-0.3,0.9-0.6c0.3-0.3,0.5-0.6,0.6-0.9c0.1-0.3,0.2-0.7,0.2-1.2c0-0.4-0.1-0.8-0.2-1.2
			C164.5,105.3,164.3,105,164,104.7"></path>
		<path class="sl0" d="M177,106.8c0,0.3,0,0.5-0.1,0.8c-0.1,0.2-0.2,0.4-0.4,0.6c-0.2,0.2-0.4,0.3-0.6,0.4c-0.2,0.1-0.5,0.2-0.8,0.2
			c-0.3,0-0.5-0.1-0.8-0.2c-0.2-0.1-0.4-0.2-0.6-0.4c-0.2-0.2-0.3-0.4-0.4-0.6c-0.1-0.2-0.1-0.5-0.1-0.8c0-0.3,0-0.5,0.1-0.8
			c0.1-0.2,0.2-0.4,0.4-0.6c0.2-0.2,0.4-0.3,0.6-0.4c0.2-0.1,0.5-0.2,0.8-0.2c0.3,0,0.5,0.1,0.8,0.2c0.2,0.1,0.4,0.2,0.6,0.4
			c0.2,0.2,0.3,0.4,0.4,0.6C176.9,106.3,177,106.6,177,106.8 M177.2,104.7c-0.3-0.3-0.6-0.5-0.9-0.6c-0.4-0.1-0.7-0.2-1.2-0.2
			c-0.4,0-0.8,0.1-1.2,0.2c-0.4,0.1-0.7,0.3-0.9,0.6c-0.3,0.3-0.5,0.6-0.6,0.9c-0.1,0.3-0.2,0.7-0.2,1.2c0,0.4,0.1,0.8,0.2,1.2
			c0.1,0.3,0.4,0.7,0.6,0.9c0.3,0.3,0.6,0.5,0.9,0.6c0.4,0.1,0.7,0.2,1.2,0.2c0.4,0,0.8-0.1,1.2-0.2c0.4-0.1,0.7-0.3,0.9-0.6
			c0.3-0.3,0.5-0.6,0.6-0.9c0.1-0.4,0.2-0.7,0.2-1.2c0-0.4-0.1-0.8-0.2-1.2C177.7,105.3,177.5,105,177.2,104.7"></path>
		<path class="sl0" d="M187.1,104.6c-0.2-0.2-0.4-0.4-0.7-0.5c-0.3-0.1-0.6-0.2-1-0.2c-0.4,0-0.8,0.1-1,0.3
			c-0.2,0.2-0.5,0.4-0.7,0.7c0-0.1-0.1-0.1-0.1-0.2c-0.1-0.1-0.2-0.2-0.3-0.3c-0.1-0.1-0.3-0.2-0.5-0.3c-0.2-0.1-0.5-0.1-0.7-0.1
			c-0.2,0-0.4,0-0.6,0.1c-0.2,0.1-0.4,0.1-0.5,0.2c-0.2,0.1-0.3,0.2-0.4,0.3c-0.1,0.1-0.1,0.2-0.2,0.2c0-0.1,0-0.2,0-0.3
			c0-0.1,0-0.3,0-0.4v-0.1h-1v0.1c0,0.2,0,0.4,0,0.6c0,0.2,0,0.4,0,0.7v4.2h1v-2.7c0-0.3,0-0.6,0.1-0.8c0.1-0.2,0.2-0.5,0.3-0.6
			c0.1-0.2,0.3-0.3,0.5-0.4c0.2-0.1,0.4-0.1,0.7-0.1c0.3,0,0.6,0.1,0.7,0.3c0.2,0.2,0.2,0.7,0.2,1.2v3.1h1v-3.2c0-0.2,0-0.4,0.1-0.6
			c0.1-0.2,0.2-0.3,0.3-0.5c0.1-0.1,0.3-0.2,0.4-0.3c0.2-0.1,0.3-0.1,0.5-0.1c0.3,0,0.5,0,0.6,0.1c0.2,0.1,0.3,0.2,0.4,0.3
			c0.1,0.1,0.2,0.3,0.2,0.5c0,0.2,0.1,0.3,0.1,0.5v3.3h1v-3.3c0-0.4,0-0.7-0.1-0.9C187.4,105,187.2,104.8,187.1,104.6"></path>
		<path class="sl0" d="M120.4,105.4c0.1-0.2,0.3-0.3,0.5-0.4c0.2-0.1,0.5-0.1,0.8-0.1c0.3,0,0.5,0.1,0.7,0.1
			c0.2,0.1,0.4,0.3,0.6,0.5l0,0l0.8-0.7l0,0c-0.3-0.3-0.6-0.5-1-0.7c-0.4-0.1-0.7-0.2-1.1-0.2c-0.4,0-0.8,0.1-1.2,0.2
			c-0.3,0.1-0.6,0.3-0.9,0.6c-0.2,0.3-0.4,0.6-0.6,0.9c-0.1,0.3-0.2,0.7-0.2,1.1c0,0.4,0.1,0.8,0.2,1.2c0.1,0.4,0.3,0.7,0.6,0.9
			c0.2,0.3,0.5,0.5,0.9,0.6c0.3,0.1,0.7,0.2,1.2,0.2c0.4,0,0.8-0.1,1.1-0.2c0.4-0.1,0.7-0.4,0.9-0.7l0,0l-0.8-0.7l0,0.1
			c-0.3,0.4-0.7,0.6-1.3,0.6c-0.3,0-0.5-0.1-0.7-0.2c-0.2-0.1-0.4-0.2-0.5-0.4c-0.2-0.2-0.3-0.4-0.4-0.6c-0.1-0.2-0.1-0.5-0.1-0.8
			c0-0.3,0-0.5,0.1-0.8C120.1,105.8,120.2,105.6,120.4,105.4"></path>
		<path class="sl0" d="M129.5,108.2v-4.2h-1v2.7c0,0.3,0,0.6-0.1,0.8c-0.1,0.2-0.2,0.5-0.3,0.6c-0.1,0.2-0.3,0.3-0.5,0.4
			c-0.2,0.1-0.4,0.1-0.7,0.1c-0.4,0-0.7-0.1-0.9-0.4c-0.2-0.2-0.3-0.6-0.3-1v-3.3h-1v3.4c0,0.3,0,0.6,0.1,0.9
			c0.1,0.3,0.2,0.5,0.4,0.7c0.2,0.2,0.4,0.4,0.7,0.5c0.3,0.1,0.6,0.2,0.9,0.2c0.2,0,0.4,0,0.6-0.1c0.2-0.1,0.4-0.1,0.5-0.2
			c0.2-0.1,0.3-0.2,0.4-0.3c0.1-0.1,0.1-0.2,0.2-0.2c0,0.1,0,0.2,0,0.3c0,0.2,0,0.3,0,0.4v0.1h1v-0.1c0-0.2,0-0.4,0-0.6
			C129.5,108.7,129.5,108.5,129.5,108.2"></path>
		<rect x="131.1" y="100.8" class="sl0" width="1" height="8.8"></rect>
		<path class="sl0" d="M113.2,101.3c-0.2,0-0.4,0.1-0.5,0.2c-0.1,0.1-0.2,0.3-0.2,0.5c0,0.2,0.1,0.4,0.2,0.5
			c0.1,0.1,0.3,0.2,0.5,0.2c0.2,0,0.4-0.1,0.5-0.2c0.1-0.1,0.2-0.3,0.2-0.5c0-0.2-0.1-0.4-0.2-0.5
			C113.5,101.4,113.4,101.3,113.2,101.3"></path>
		<path class="sl0" d="M137.2,107v0.3c0,0.2,0,0.4-0.1,0.6c-0.1,0.2-0.2,0.4-0.3,0.5c-0.1,0.1-0.3,0.3-0.5,0.3
			c-0.2,0.1-0.4,0.1-0.7,0.1c-0.3,0-0.6-0.1-0.8-0.2c-0.2-0.1-0.3-0.4-0.3-0.7c0-0.3,0.2-0.6,0.5-0.7c0.3-0.2,0.8-0.2,1.3-0.2H137.2
			z M138.3,109c0-0.2,0-0.3,0-0.5v-2.3c0-0.8-0.2-1.4-0.5-1.7c-0.4-0.4-1-0.6-1.8-0.6c-0.4,0-0.8,0.1-1.2,0.2
			c-0.4,0.1-0.7,0.4-1,0.6l0,0l0.6,0.7l0,0c0.2-0.2,0.5-0.3,0.7-0.4c0.3-0.1,0.6-0.1,0.8-0.1c0.4,0,0.7,0.1,0.9,0.3
			c0.2,0.2,0.3,0.5,0.3,0.8v0.1h-0.3c-0.3,0-0.7,0-1.1,0c-0.4,0-0.8,0.1-1.1,0.2c-0.3,0.1-0.6,0.3-0.9,0.6c-0.2,0.3-0.4,0.6-0.4,1.1
			c0,0.3,0.1,0.5,0.2,0.7s0.3,0.4,0.4,0.5c0.2,0.1,0.4,0.2,0.7,0.3c0.2,0.1,0.5,0.1,0.8,0.1c0.4,0,0.8-0.1,1.1-0.3
			c0.3-0.2,0.5-0.3,0.6-0.6c0,0.1,0,0.2,0,0.3c0,0.2,0,0.3,0.1,0.4l0,0h1l0-0.1C138.3,109.4,138.3,109.2,138.3,109"></path>
		<path class="sl0" d="M142.7,104c-0.1,0-0.1,0-0.2,0c-0.2,0-0.4,0-0.6,0.1c-0.2,0.1-0.4,0.1-0.5,0.2c-0.2,0.1-0.3,0.2-0.4,0.3
			c-0.1,0.1-0.1,0.2-0.2,0.2c0-0.1,0-0.2,0-0.3c0-0.1,0-0.3,0-0.4v-0.1h-1v0.1c0,0.2,0,0.4,0,0.6c0,0.2,0,0.4,0,0.7v4.1h1v-2.7
			c0-0.6,0.1-1.1,0.4-1.4c0.2-0.3,0.6-0.5,1.2-0.5c0.2,0,0.3,0,0.5,0.1l0.1,0l0.1-1l0,0C142.8,104,142.7,104,142.7,104"></path>
		<path class="sl0" d="M155,105.4c0.1-0.2,0.3-0.3,0.5-0.4c0.2-0.1,0.5-0.1,0.8-0.1c0.3,0,0.5,0.1,0.7,0.1c0.2,0.1,0.4,0.3,0.6,0.5
			l0,0l0.8-0.7l0,0c-0.3-0.3-0.6-0.5-1-0.7c-0.4-0.1-0.7-0.2-1.1-0.2c-0.4,0-0.8,0.1-1.2,0.2c-0.3,0.1-0.6,0.3-0.9,0.6
			c-0.2,0.3-0.4,0.6-0.6,0.9c-0.1,0.3-0.2,0.7-0.2,1.1c0,0.4,0.1,0.8,0.2,1.2c0.1,0.4,0.3,0.7,0.6,0.9c0.2,0.3,0.5,0.5,0.9,0.6
			c0.4,0.1,0.7,0.2,1.2,0.2c0.4,0,0.8-0.1,1.1-0.2c0.4-0.1,0.7-0.4,0.9-0.7l0,0l-0.8-0.7l0,0.1c-0.3,0.4-0.8,0.6-1.3,0.6
			c-0.3,0-0.5-0.1-0.7-0.2c-0.2-0.1-0.4-0.2-0.5-0.4c-0.2-0.2-0.3-0.4-0.4-0.6c-0.1-0.2-0.1-0.5-0.1-0.8c0-0.3,0-0.5,0.1-0.8
			C154.8,105.8,154.9,105.6,155,105.4"></path>
		<polygon class="sl0" points="148.2,105.8 152.1,105.8 152.1,104.8 148.2,104.8 148.2,102.3 152.4,102.3 152.4,101.3 147.2,101.3
			147.2,109.6 152.6,109.6 152.6,108.6 148.2,108.6 		"></polygon>
		<path class="sl0" d="M118.2,104c-0.1,0-0.1,0-0.2,0c-0.2,0-0.4,0-0.6,0.1c-0.2,0.1-0.4,0.1-0.5,0.2c-0.2,0.1-0.3,0.2-0.4,0.3
			c-0.1,0.1-0.1,0.2-0.2,0.2c0-0.1,0-0.2,0-0.3c0-0.1,0-0.3,0-0.4v-0.1h-1v0.1c0,0.2,0,0.4,0,0.6c0,0.2,0,0.4,0,0.7v4.1h1v-2.7
			c0-0.6,0.1-1.1,0.4-1.4c0.2-0.3,0.6-0.5,1.2-0.5c0.2,0,0.3,0,0.5,0.1l0.1,0l0.1-1l0,0C118.3,104,118.3,104,118.2,104"></path>
		<path class="sl0" d="M220.1,106.3h-3.2c0.1-0.4,0.2-0.8,0.5-1c0.3-0.3,0.7-0.4,1.2-0.4c0.5,0,0.9,0.1,1.1,0.4
			C220,105.5,220.1,105.9,220.1,106.3 M220.5,104.7c-0.2-0.2-0.5-0.4-0.8-0.6c-0.3-0.1-0.7-0.2-1.1-0.2c-0.4,0-0.8,0.1-1.1,0.2
			c-0.3,0.1-0.6,0.3-0.9,0.6c-0.2,0.3-0.4,0.6-0.6,0.9c-0.1,0.4-0.2,0.7-0.2,1.2c0,0.4,0.1,0.8,0.2,1.1c0.1,0.4,0.3,0.7,0.6,0.9
			c0.2,0.3,0.5,0.5,0.9,0.6c0.3,0.2,0.7,0.2,1.2,0.2c0.5,0,1-0.1,1.4-0.3c0.4-0.2,0.8-0.5,1.1-0.9l0,0l-0.8-0.6l0,0
			c-0.2,0.3-0.4,0.5-0.7,0.6c-0.3,0.1-0.6,0.2-1,0.2c-0.2,0-0.5,0-0.7-0.1c-0.2-0.1-0.4-0.2-0.5-0.4c-0.1-0.1-0.3-0.3-0.4-0.5
			c-0.1-0.2-0.1-0.4-0.2-0.6h4.3v-0.3c0-0.4-0.1-0.9-0.2-1.2C220.9,105.3,220.7,104.9,220.5,104.7"></path>
		<path class="sl0" d="M214.4,106.8c-0.2-0.1-0.4-0.2-0.6-0.3c-0.2-0.1-0.4-0.1-0.7-0.2c-0.2,0-0.3-0.1-0.5-0.1
			c-0.2,0-0.3-0.1-0.4-0.2c-0.1-0.1-0.2-0.1-0.3-0.2c-0.1-0.1-0.1-0.2-0.1-0.3c0-0.1,0-0.2,0.1-0.3c0.1-0.1,0.1-0.2,0.2-0.2
			c0.1-0.1,0.2-0.1,0.3-0.1c0.4-0.1,0.8,0,1,0.1c0.2,0.1,0.3,0.3,0.4,0.4l0,0.1l0.8-0.6l0,0c-0.2-0.4-0.5-0.6-0.8-0.8
			c-0.3-0.2-0.7-0.2-1.1-0.2c-0.3,0-0.5,0-0.7,0.1c-0.2,0.1-0.5,0.2-0.7,0.3c-0.2,0.1-0.4,0.3-0.5,0.5c-0.1,0.2-0.2,0.4-0.2,0.7
			c0,0.3,0.1,0.5,0.2,0.7c0.1,0.2,0.3,0.3,0.4,0.4c0.2,0.1,0.4,0.2,0.6,0.3c0.2,0.1,0.5,0.1,0.7,0.2c0.1,0,0.3,0.1,0.4,0.1
			c0.1,0,0.3,0.1,0.4,0.2c0.1,0.1,0.2,0.1,0.2,0.2c0.1,0.1,0.1,0.2,0.1,0.3c0,0.1,0,0.2-0.1,0.3c-0.1,0.1-0.1,0.2-0.3,0.2
			c-0.1,0.1-0.2,0.1-0.4,0.1c-0.1,0-0.3,0-0.4,0c-0.3,0-0.6-0.1-0.8-0.2c-0.2-0.1-0.4-0.3-0.6-0.5l0,0l-0.8,0.6l0,0
			c0.3,0.4,0.6,0.7,0.9,0.8c0.3,0.1,0.7,0.2,1.2,0.2c0.3,0,0.5,0,0.8-0.1c0.3-0.1,0.5-0.2,0.7-0.3c0.2-0.1,0.4-0.3,0.5-0.5
			c0.1-0.2,0.2-0.5,0.2-0.8c0-0.3,0-0.5-0.1-0.7C214.7,107.1,214.6,106.9,214.4,106.8"></path>
		<path class="sl0" d="M208.9,106.3h-3.2c0.1-0.4,0.2-0.8,0.5-1c0.3-0.3,0.7-0.4,1.2-0.4c0.5,0,0.9,0.1,1.1,0.4
			C208.7,105.5,208.8,105.9,208.9,106.3 M209.2,104.7c-0.2-0.2-0.5-0.4-0.8-0.6c-0.3-0.1-0.7-0.2-1.1-0.2c-0.4,0-0.8,0.1-1.1,0.2
			c-0.3,0.1-0.6,0.3-0.9,0.6c-0.2,0.3-0.4,0.6-0.6,0.9c-0.1,0.4-0.2,0.7-0.2,1.2c0,0.4,0.1,0.8,0.2,1.1c0.1,0.4,0.3,0.7,0.5,0.9
			c0.2,0.3,0.5,0.5,0.9,0.6c0.3,0.2,0.7,0.2,1.2,0.2c0.5,0,1-0.1,1.4-0.3c0.4-0.2,0.8-0.5,1.1-0.9l0,0l-0.8-0.6l0,0
			c-0.2,0.3-0.4,0.5-0.7,0.6c-0.3,0.1-0.6,0.2-1,0.2c-0.2,0-0.5,0-0.7-0.1c-0.2-0.1-0.4-0.2-0.5-0.4c-0.1-0.1-0.3-0.3-0.4-0.5
			c-0.1-0.2-0.1-0.4-0.2-0.6h4.3v-0.3c0-0.4-0.1-0.9-0.2-1.2C209.6,105.3,209.5,105,209.2,104.7"></path>
		<path class="sl0" d="M231.3,104c-0.1,0-0.1,0-0.2,0c-0.2,0-0.4,0-0.6,0.1c-0.2,0.1-0.4,0.1-0.5,0.2c-0.2,0.1-0.3,0.2-0.4,0.3
			c-0.1,0.1-0.1,0.2-0.2,0.2c0-0.1,0-0.2,0-0.3c0-0.2,0-0.3,0-0.4v-0.1h-1v0.1c0,0.2,0,0.4,0,0.6c0,0.2,0,0.4,0,0.7v4.1h1v-2.7
			c0-0.6,0.1-1.1,0.4-1.4c0.2-0.3,0.6-0.5,1.2-0.5c0.2,0,0.3,0,0.5,0.1l0.1,0l0.1-1l0,0C231.4,104,231.4,104,231.3,104"></path>
		<path class="sl0" d="M233.5,105.4c0.1-0.2,0.3-0.3,0.5-0.4c0.2-0.1,0.5-0.1,0.8-0.1c0.3,0,0.5,0.1,0.7,0.1
			c0.2,0.1,0.4,0.3,0.6,0.5l0,0l0.8-0.7l0,0c-0.3-0.3-0.6-0.5-1-0.7c-0.4-0.1-0.7-0.2-1.1-0.2c-0.4,0-0.8,0.1-1.2,0.2
			c-0.3,0.1-0.6,0.3-0.9,0.6c-0.2,0.3-0.4,0.6-0.6,0.9c-0.1,0.3-0.2,0.7-0.2,1.1c0,0.4,0.1,0.8,0.2,1.2c0.1,0.4,0.3,0.7,0.6,0.9
			c0.2,0.3,0.5,0.5,0.9,0.6c0.3,0.1,0.7,0.2,1.2,0.2c0.4,0,0.8-0.1,1.1-0.2c0.4-0.1,0.7-0.4,0.9-0.7l0,0l-0.8-0.7l0,0.1
			c-0.3,0.4-0.8,0.6-1.3,0.6c-0.3,0-0.5-0.1-0.7-0.2c-0.2-0.1-0.4-0.2-0.5-0.4c-0.2-0.2-0.3-0.4-0.4-0.6c-0.1-0.2-0.1-0.5-0.1-0.8
			c0-0.3,0-0.5,0.1-0.8C233.2,105.8,233.3,105.6,233.5,105.4"></path>
		<path class="sl0" d="M242.1,104.6c-0.2-0.2-0.4-0.4-0.7-0.5c-0.3-0.1-0.6-0.2-0.9-0.2c-0.2,0-0.4,0-0.6,0.1
			c-0.2,0.1-0.4,0.1-0.5,0.2c-0.2,0.1-0.3,0.2-0.4,0.3c-0.1,0.1-0.1,0.1-0.2,0.2v-4h-1v8.8h1v-2.7c0-0.3,0-0.6,0.1-0.8
			c0.1-0.2,0.2-0.5,0.3-0.6c0.1-0.2,0.3-0.3,0.5-0.4c0.2-0.1,0.4-0.1,0.7-0.1c0.4,0,0.7,0.1,0.9,0.4c0.2,0.2,0.3,0.6,0.3,1v3.3h1
			v-3.4c0-0.3,0-0.6-0.1-0.9C242.4,105,242.3,104.8,242.1,104.6"></path>
		<path class="sl0" d="M225.9,107v0.3c0,0.2,0,0.4-0.1,0.6c-0.1,0.2-0.2,0.4-0.3,0.5c-0.1,0.1-0.3,0.3-0.5,0.3
			c-0.2,0.1-0.4,0.1-0.7,0.1c-0.3,0-0.6-0.1-0.8-0.2c-0.2-0.1-0.3-0.3-0.3-0.7c0-0.3,0.2-0.6,0.5-0.7c0.3-0.2,0.8-0.2,1.3-0.2H225.9
			z M226.9,109c0-0.2,0-0.3,0-0.5v-2.3c0-0.8-0.2-1.4-0.5-1.7c-0.4-0.4-1-0.6-1.8-0.6c-0.4,0-0.8,0.1-1.2,0.2
			c-0.4,0.1-0.7,0.4-1,0.6l0,0l0.6,0.7l0,0c0.2-0.2,0.4-0.3,0.7-0.4c0.3-0.1,0.6-0.1,0.8-0.1c0.4,0,0.7,0.1,0.9,0.3
			c0.2,0.2,0.3,0.5,0.3,0.8v0.1h-0.3c-0.3,0-0.7,0-1.1,0c-0.4,0-0.8,0.1-1.1,0.2c-0.4,0.1-0.6,0.3-0.9,0.6c-0.2,0.3-0.4,0.6-0.4,1.1
			c0,0.3,0.1,0.5,0.2,0.7c0.1,0.2,0.3,0.4,0.4,0.5c0.2,0.1,0.4,0.2,0.6,0.3c0.2,0.1,0.5,0.1,0.8,0.1c0.4,0,0.8-0.1,1.1-0.3
			c0.3-0.2,0.5-0.3,0.6-0.6c0,0.1,0,0.2,0,0.3c0,0.2,0,0.3,0.1,0.4l0,0h1l0-0.1C227,109.4,226.9,109.2,226.9,109"></path>
		<path class="sl0" d="M202.3,103.6c0,0.3-0.1,0.6-0.2,0.7c-0.2,0.2-0.3,0.3-0.6,0.4c-0.2,0.1-0.5,0.1-0.8,0.1c-0.3,0-0.6,0-0.8,0
			h-0.8v-2.6h1.3c0.2,0,0.5,0,0.7,0c0.2,0,0.4,0.1,0.6,0.2c0.2,0.1,0.3,0.2,0.4,0.4C202.2,103.1,202.3,103.3,202.3,103.6
			 M202.9,105.1c0.4-0.4,0.6-0.9,0.6-1.5c0-0.5-0.1-0.9-0.3-1.2c-0.2-0.3-0.5-0.5-0.8-0.7c-0.3-0.2-0.7-0.3-1.1-0.3
			c-0.4,0-0.8-0.1-1.2-0.1H198v8.2h1.1v-3.6h1.2l2.2,3.6l0,0h1.3l-2.3-3.8C202,105.7,202.5,105.5,202.9,105.1"></path>
		<path class="sl0" d="M191.2,108.2l-1.6-4.1l0,0h-1.2l2.2,5.5l-0.4,1c-0.1,0.3-0.2,0.5-0.3,0.6c-0.1,0.1-0.3,0.2-0.6,0.2
			c-0.1,0-0.2,0-0.3,0c-0.1,0-0.2,0-0.3-0.1l-0.1,0l-0.1,0.9l0,0c0.1,0.1,0.3,0.1,0.4,0.1c0.1,0,0.3,0,0.4,0c0.3,0,0.5,0,0.7-0.1
			c0.2-0.1,0.4-0.2,0.5-0.3c0.1-0.1,0.3-0.3,0.4-0.5c0.1-0.2,0.2-0.4,0.3-0.6l2.6-6.6l0-0.1h-1.1L191.2,108.2z"></path>
		<path class="sl0" d="M105.3,95c0.2,0.3,0.6,0.6,1,0.7c0.4,0.2,0.9,0.3,1.4,0.3c0.6,0,1.1-0.1,1.4-0.3c0.4-0.2,0.7-0.4,1-0.7
			c0.2-0.3,0.4-0.7,0.5-1.1c0.1-0.4,0.2-0.8,0.2-1.3v-5.1h-1.1v4.9c0,0.3,0,0.6-0.1,0.9c-0.1,0.3-0.2,0.6-0.3,0.8
			c-0.2,0.2-0.4,0.4-0.6,0.5c-0.3,0.1-0.6,0.2-1,0.2c-0.4,0-0.7-0.1-1-0.2c-0.3-0.1-0.5-0.3-0.6-0.5c-0.2-0.2-0.3-0.5-0.3-0.8
			c-0.1-0.3-0.1-0.6-0.1-0.9v-4.9h-1.1v5.1c0,0.4,0.1,0.9,0.2,1.3C104.9,94.3,105.1,94.7,105.3,95"></path>
		<rect x="127" y="87.6" class="sl0" width="1.1" height="8.2"></rect>
		<polygon class="sl0" points="113.8,91.7 113.9,91.7 117.7,95.8 117.7,95.8 119.3,95.8 115,91.3 119,87.7 119.1,87.6 117.6,87.6
			113.9,91.1 113.8,91.1 113.8,87.6 112.7,87.6 112.7,95.8 113.8,95.8 		"></polygon>
		<path class="sl0" d="M254,90.2c-0.1,0-0.1,0-0.2,0c-0.2,0-0.4,0-0.6,0.1c-0.2,0.1-0.4,0.1-0.5,0.2c-0.2,0.1-0.3,0.2-0.4,0.3
			c-0.1,0.1-0.1,0.2-0.2,0.2c0-0.1,0-0.2,0-0.3c0-0.1,0-0.3,0-0.4v-0.1h-1v0.1c0,0.2,0,0.4,0,0.6c0,0.2,0,0.5,0,0.7v4.1h1v-2.7
			c0-0.6,0.1-1.1,0.4-1.4c0.2-0.3,0.6-0.5,1.2-0.5c0.2,0,0.3,0,0.5,0.1l0.1,0l0.1-1l0,0C254.2,90.2,254.1,90.2,254,90.2"></path>
		<path class="sl0" d="M155.4,93.1c0-0.3,0-0.5,0.1-0.8v0c0.1-0.2,0.2-0.4,0.4-0.6c0.2-0.2,0.4-0.3,0.6-0.4c0.2-0.1,0.5-0.2,0.8-0.2
			c0.3,0,0.5,0.1,0.8,0.2c0.2,0.1,0.4,0.2,0.6,0.4c0.2,0.2,0.3,0.4,0.4,0.6c0.1,0.2,0.1,0.5,0.1,0.8s0,0.5-0.1,0.8
			c-0.1,0.2-0.2,0.4-0.4,0.6c-0.2,0.2-0.4,0.3-0.6,0.4c-0.2,0.1-0.5,0.1-0.8,0.1c-0.3,0-0.5-0.1-0.8-0.1c-0.2-0.1-0.4-0.2-0.6-0.4
			c-0.2-0.2-0.3-0.4-0.4-0.6C155.5,93.6,155.4,93.3,155.4,93.1 M155.2,95.1c0.3,0.3,0.6,0.5,0.9,0.6c0.4,0.1,0.7,0.2,1.2,0.2
			s0.8-0.1,1.2-0.2s0.7-0.3,0.9-0.6c0.3-0.3,0.5-0.6,0.6-0.9c0.1-0.3,0.2-0.7,0.2-1.2c0-0.4-0.1-0.8-0.2-1.2
			c-0.1-0.3-0.4-0.7-0.6-0.9c-0.3-0.3-0.6-0.5-0.9-0.6c-0.4-0.1-0.8-0.2-1.2-0.2s-0.8,0.1-1.2,0.2c-0.4,0.1-0.7,0.3-0.9,0.6
			c-0.3,0.3-0.5,0.6-0.6,0.9c-0.1,0.4-0.2,0.7-0.2,1.2c0,0.4,0.1,0.8,0.2,1.2C154.7,94.6,154.9,94.9,155.2,95.1"></path>
		<path class="sl0" d="M243.1,90.8c-0.2-0.2-0.4-0.4-0.7-0.5c-0.3-0.1-0.6-0.2-0.9-0.2c-0.2,0-0.4,0-0.6,0.1
			c-0.2,0.1-0.4,0.1-0.5,0.2c-0.2,0.1-0.3,0.2-0.4,0.3c-0.1,0.1-0.1,0.2-0.2,0.2c0-0.1,0-0.2,0-0.3c0-0.1,0-0.3,0-0.4v-0.1h-1v0.1
			c0,0.2,0,0.4,0,0.6c0,0.2,0,0.4,0,0.7v4.2h1v-2.7c0-0.3,0-0.6,0.1-0.8c0.1-0.2,0.2-0.5,0.3-0.6c0.1-0.2,0.3-0.3,0.5-0.4
			c0.2-0.1,0.4-0.1,0.7-0.1c0.4,0,0.7,0.1,0.9,0.4c0.2,0.3,0.3,0.6,0.3,1v3.3h1v-3.4c0-0.3,0-0.6-0.1-0.9
			C243.4,91.2,243.3,91,243.1,90.8"></path>
		<path class="sl0" d="M236.7,87.6c-0.2,0-0.4,0.1-0.5,0.2c-0.1,0.1-0.2,0.3-0.2,0.5c0,0.2,0.1,0.4,0.2,0.5c0.1,0.1,0.3,0.2,0.5,0.2
			c0.2,0,0.4-0.1,0.5-0.2c0.1-0.1,0.2-0.3,0.2-0.5c0-0.2-0.1-0.4-0.2-0.5C237,87.6,236.9,87.6,236.7,87.6"></path>
		<path class="sl0" d="M248.6,93.2v0.3c0,0.2,0,0.4-0.1,0.6c-0.1,0.2-0.2,0.4-0.3,0.5c-0.1,0.1-0.3,0.3-0.5,0.3
			c-0.2,0.1-0.4,0.1-0.7,0.1c-0.3,0-0.6-0.1-0.8-0.2c-0.2-0.1-0.3-0.3-0.3-0.7c0-0.3,0.2-0.6,0.5-0.7c0.3-0.2,0.8-0.2,1.3-0.2H248.6
			z M249.7,95.3c0-0.2,0-0.3,0-0.5v-2.3c0-0.8-0.2-1.4-0.5-1.7c-0.4-0.4-1-0.6-1.8-0.6c-0.4,0-0.8,0.1-1.2,0.2
			c-0.4,0.1-0.7,0.4-1,0.6l0,0l0.6,0.7l0,0c0.2-0.2,0.4-0.3,0.7-0.4c0.3-0.1,0.6-0.1,0.8-0.1c0.4,0,0.7,0.1,0.9,0.3
			c0.2,0.2,0.3,0.5,0.3,0.8v0.1h-0.3c-0.3,0-0.7,0-1.1,0c-0.4,0-0.8,0.1-1.1,0.2c-0.3,0.1-0.6,0.3-0.9,0.6c-0.2,0.3-0.4,0.6-0.4,1.1
			c0,0.3,0.1,0.5,0.2,0.7c0.1,0.2,0.3,0.4,0.4,0.5c0.2,0.1,0.4,0.2,0.6,0.3c0.2,0.1,0.5,0.1,0.8,0.1c0.4,0,0.8-0.1,1.1-0.3
			c0.3-0.2,0.5-0.4,0.6-0.6c0,0.1,0,0.2,0,0.2c0,0.2,0,0.3,0.1,0.4l0,0h1l0-0.1C249.7,95.6,249.7,95.5,249.7,95.3"></path>
		<path class="sl0" d="M224.1,89c0.2,0,0.4-0.1,0.5-0.2c0.1-0.1,0.2-0.3,0.2-0.5c0-0.2-0.1-0.4-0.2-0.5c-0.1-0.1-0.3-0.2-0.5-0.2
			c-0.2,0-0.4,0.1-0.5,0.2c-0.1,0.1-0.2,0.3-0.2,0.5c0,0.2,0.1,0.4,0.2,0.5C223.8,88.9,223.9,89,224.1,89"></path>
		<rect x="223.6" y="90.3" class="sl0" width="1" height="5.5"></rect>
		<rect x="233.4" y="87" class="sl0" width="1" height="8.8"></rect>
		<path class="sl0" d="M199.5,91.7v4.2h1v-2.7c0-0.6,0.1-1.1,0.4-1.4c0.2-0.3,0.6-0.5,1.2-0.5c0.2,0,0.3,0,0.5,0.1l0.1,0l0.1-1l0,0
			c-0.1,0-0.1,0-0.2,0s-0.1,0-0.2,0c-0.2,0-0.4,0-0.6,0.1c-0.2,0.1-0.4,0.1-0.5,0.2c-0.2,0.1-0.3,0.2-0.4,0.3
			c-0.1,0.1-0.1,0.2-0.2,0.2c0-0.1,0-0.2,0-0.3c0-0.1,0-0.3,0-0.4v-0.1h-1v0.1c0,0.2,0,0.4,0,0.6C199.5,91.2,199.5,91.4,199.5,91.7"></path>
		<rect x="179.9" y="87.6" class="sl0" width="1.1" height="8.2"></rect>
		<rect x="173.9" y="87" class="sl0" width="1" height="8.8"></rect>
		<path class="sl0" d="M258.8,90.3l-1.6,4.1l-1.6-4.1l0,0h-1.2l2.2,5.5l-0.4,1c-0.1,0.3-0.2,0.5-0.3,0.6c-0.1,0.1-0.3,0.2-0.6,0.2
			c-0.1,0-0.2,0-0.3,0c-0.1,0-0.2,0-0.3-0.1l-0.1,0l-0.1,0.9l0,0c0.1,0.1,0.3,0.1,0.4,0.1c0.2,0,0.3,0,0.4,0c0.3,0,0.5,0,0.7-0.1
			c0.2-0.1,0.4-0.2,0.5-0.3c0.1-0.1,0.3-0.3,0.4-0.5c0.1-0.2,0.2-0.4,0.3-0.6l2.6-6.6l0-0.1H258.8z"></path>
		<path class="sl0" d="M189.6,94.1c0,0.3,0,0.5,0.1,0.8c0,0.2,0.1,0.4,0.2,0.6c0.1,0.2,0.3,0.3,0.5,0.4c0.2,0.1,0.5,0.1,0.8,0.1
			c0.2,0,0.4,0,0.5,0c0.2,0,0.4-0.1,0.5-0.2l0,0l0-0.9l-0.1,0c-0.1,0.1-0.2,0.1-0.4,0.1c-0.1,0-0.3,0-0.4,0c-0.2,0-0.3,0-0.4-0.1
			c-0.1-0.1-0.2-0.1-0.2-0.2c-0.1-0.1-0.1-0.2-0.1-0.4c0-0.2,0-0.3,0-0.5v-2.6h1.6v-0.9h-1.6v-1.5h-1v1.5h-1.2v0.9h1.2V94.1z"></path>
		<rect x="152" y="90.3" class="sl0" width="1" height="5.5"></rect>
		<path class="sl0" d="M216.7,95c0.1-0.2,0.2-0.5,0.2-0.8c0-0.3,0-0.5-0.1-0.7c-0.1-0.2-0.2-0.4-0.4-0.5c-0.2-0.1-0.4-0.2-0.6-0.3
			c-0.2-0.1-0.5-0.1-0.7-0.2c-0.2,0-0.3-0.1-0.5-0.1c-0.2,0-0.3-0.1-0.4-0.2c-0.1-0.1-0.2-0.1-0.3-0.2c-0.1-0.1-0.1-0.2-0.1-0.3
			c0-0.1,0-0.2,0.1-0.3c0.1-0.1,0.1-0.2,0.2-0.2c0.1-0.1,0.2-0.1,0.3-0.1c0.1,0,0.2,0,0.4,0c0.3,0,0.5,0.1,0.7,0.2
			c0.2,0.1,0.3,0.3,0.4,0.4l0,0.1l0.8-0.6l0,0c-0.2-0.4-0.5-0.6-0.8-0.8c-0.3-0.2-0.7-0.2-1.1-0.2c-0.3,0-0.5,0-0.8,0.1
			c-0.2,0.1-0.5,0.2-0.7,0.3c-0.2,0.1-0.4,0.3-0.5,0.5c-0.1,0.2-0.2,0.4-0.2,0.7c0,0.3,0.1,0.5,0.2,0.7c0.1,0.2,0.3,0.3,0.4,0.4
			c0.2,0.1,0.4,0.2,0.6,0.3c0.2,0.1,0.5,0.1,0.7,0.2c0.1,0,0.3,0.1,0.4,0.1c0.1,0,0.3,0.1,0.4,0.2c0.1,0.1,0.2,0.1,0.2,0.2
			c0.1,0.1,0.1,0.2,0.1,0.3c0,0.1,0,0.2-0.1,0.3c-0.1,0.1-0.2,0.2-0.3,0.2c-0.1,0.1-0.2,0.1-0.4,0.1c-0.1,0-0.3,0-0.4,0
			c-0.3,0-0.6-0.1-0.8-0.2c-0.2-0.1-0.4-0.3-0.6-0.5l0,0l-0.8,0.6l0,0c0.3,0.4,0.6,0.7,0.9,0.8c0.3,0.1,0.7,0.2,1.2,0.2
			c0.3,0,0.5,0,0.8-0.1c0.3-0.1,0.5-0.2,0.7-0.3C216.4,95.4,216.6,95.2,216.7,95"></path>
		<path class="sl0" d="M166.3,95.8v-3.4c0-0.3,0-0.6-0.1-0.9c-0.1-0.3-0.2-0.5-0.4-0.7c-0.2-0.2-0.4-0.4-0.7-0.5
			c-0.3-0.1-0.6-0.2-0.9-0.2c-0.2,0-0.4,0-0.6,0.1c-0.2,0.1-0.4,0.1-0.5,0.2c-0.2,0.1-0.3,0.2-0.4,0.3c-0.1,0.1-0.1,0.2-0.2,0.2
			c0-0.1,0-0.2,0-0.3c0-0.1,0-0.3,0-0.4v-0.1h-1v0.1c0,0.2,0,0.4,0,0.6c0,0.2,0,0.5,0,0.7v4.2h1v-2.7c0-0.3,0-0.6,0.1-0.8
			c0.1-0.2,0.2-0.5,0.3-0.6c0.1-0.2,0.3-0.3,0.5-0.4c0.2-0.1,0.4-0.1,0.7-0.1c0.4,0,0.7,0.1,0.9,0.4c0.2,0.2,0.3,0.6,0.3,1v3.3
			H166.3z"></path>
		<path class="sl0" d="M148.3,94.1c0,0.3,0,0.5,0.1,0.8c0,0.2,0.1,0.4,0.2,0.6c0.1,0.2,0.3,0.3,0.5,0.4c0.2,0.1,0.5,0.1,0.8,0.1
			c0.2,0,0.4,0,0.5,0c0.2,0,0.4-0.1,0.5-0.2l0,0l0-0.9l-0.1,0c-0.1,0.1-0.2,0.1-0.4,0.1c-0.1,0-0.3,0-0.4,0c-0.2,0-0.3,0-0.4-0.1
			c-0.1-0.1-0.2-0.1-0.2-0.2c-0.1-0.1-0.1-0.2-0.1-0.4c0-0.1,0-0.3,0-0.5v-2.6h1.6v-0.9h-1.6v-1.5h-1v1.5h-1.2v0.9h1.2V94.1z"></path>
		<path class="sl0" d="M145.3,93.2v0.3c0,0.2,0,0.4-0.1,0.6c-0.1,0.2-0.2,0.3-0.3,0.5c-0.1,0.1-0.3,0.3-0.5,0.3
			c-0.2,0.1-0.4,0.1-0.7,0.1c-0.3,0-0.6-0.1-0.8-0.2c-0.2-0.1-0.3-0.3-0.3-0.7c0-0.3,0.2-0.6,0.5-0.7c0.3-0.2,0.8-0.2,1.3-0.2H145.3
			z M146.4,95.3c0-0.2,0-0.3,0-0.5v-2.3c0-0.8-0.2-1.4-0.5-1.7c-0.4-0.4-1-0.6-1.8-0.6c-0.4,0-0.8,0.1-1.2,0.2
			c-0.4,0.1-0.7,0.4-1,0.6l0,0l0.6,0.7l0,0c0.2-0.2,0.4-0.3,0.7-0.4c0.3-0.1,0.6-0.1,0.8-0.1c0.4,0,0.7,0.1,0.9,0.3
			c0.2,0.2,0.3,0.5,0.3,0.8v0.1H145c-0.3,0-0.7,0-1.1,0c-0.4,0-0.8,0.1-1.1,0.2c-0.3,0.1-0.6,0.3-0.9,0.6c-0.2,0.3-0.4,0.6-0.4,1.1
			c0,0.3,0.1,0.5,0.2,0.7c0.1,0.2,0.3,0.4,0.4,0.5c0.2,0.1,0.4,0.2,0.6,0.3c0.2,0.1,0.5,0.1,0.8,0.1c0.4,0,0.8-0.1,1.1-0.3
			c0.3-0.2,0.5-0.4,0.6-0.6c0,0.1,0,0.2,0,0.3c0,0.2,0,0.3,0.1,0.4l0,0h1l0-0.1C146.4,95.6,146.4,95.5,146.4,95.3"></path>
		<path class="sl0" d="M152.5,87.6c-0.2,0-0.4,0.1-0.5,0.2c-0.1,0.1-0.2,0.3-0.2,0.5c0,0.2,0.1,0.4,0.2,0.5c0.1,0.1,0.3,0.2,0.5,0.2
			c0.2,0,0.4-0.1,0.5-0.2c0.1-0.1,0.2-0.3,0.2-0.5c0-0.2-0.1-0.4-0.2-0.5C152.9,87.6,152.7,87.6,152.5,87.6"></path>
		<rect x="236.2" y="90.3" class="sl0" width="1" height="5.5"></rect>
		<path class="sl0" d="M211.5,88.8c0.1-0.1,0.2-0.3,0.2-0.5c0-0.2-0.1-0.4-0.2-0.5c-0.1-0.1-0.3-0.2-0.5-0.2c-0.2,0-0.4,0.1-0.5,0.2
			c-0.1,0.1-0.2,0.3-0.2,0.5c0,0.2,0.1,0.4,0.2,0.5c0.1,0.1,0.3,0.2,0.5,0.2C211.2,89,211.3,88.9,211.5,88.8"></path>
		<rect x="210.5" y="90.3" class="sl0" width="1" height="5.5"></rect>
		<path class="sl0" d="M204.1,93.1c0-0.3,0-0.5,0.1-0.8c0.1-0.2,0.2-0.4,0.4-0.6c0.2-0.2,0.4-0.3,0.6-0.4c0.2-0.1,0.5-0.2,0.8-0.2
			c0.3,0,0.5,0.1,0.8,0.2c0.2,0.1,0.4,0.2,0.6,0.4c0.2,0.2,0.3,0.4,0.4,0.6c0.1,0.2,0.1,0.5,0.1,0.8c0,0.3,0,0.5-0.1,0.8
			c-0.1,0.2-0.2,0.4-0.4,0.6c-0.2,0.2-0.4,0.3-0.6,0.4c-0.2,0.1-0.5,0.2-0.8,0.2c-0.3,0-0.5-0.1-0.8-0.2c-0.2-0.1-0.4-0.2-0.6-0.4
			c-0.2-0.2-0.3-0.4-0.4-0.6C204.2,93.6,204.1,93.3,204.1,93.1 M205.8,95.9c0.5,0,0.9-0.1,1.3-0.3c0.3-0.2,0.6-0.4,0.7-0.7v0.8h1V87
			h-1v4c-0.2-0.3-0.5-0.5-0.8-0.6c-0.3-0.2-0.7-0.2-1.1-0.2c-0.4,0-0.8,0.1-1.2,0.2c-0.4,0.1-0.7,0.3-0.9,0.6
			c-0.2,0.3-0.4,0.6-0.6,0.9c-0.1,0.3-0.2,0.7-0.2,1.1c0,0.4,0.1,0.8,0.2,1.1c0.1,0.3,0.3,0.7,0.6,0.9c0.2,0.3,0.5,0.5,0.9,0.6
			C205,95.9,205.4,95.9,205.8,95.9"></path>
		<path class="sl0" d="M197.2,92.5h-3.2c0.1-0.4,0.2-0.8,0.5-1c0.3-0.3,0.7-0.4,1.2-0.4s0.9,0.1,1.1,0.4
			C197,91.8,197.1,92.1,197.2,92.5 M198.1,94.8l-0.8-0.6l0,0c-0.2,0.3-0.4,0.5-0.7,0.6c-0.3,0.1-0.6,0.2-1,0.2c-0.2,0-0.5,0-0.7-0.1
			c-0.2-0.1-0.4-0.2-0.5-0.4c-0.1-0.2-0.3-0.3-0.4-0.5c-0.1-0.2-0.1-0.4-0.2-0.6h4.3v-0.3c0-0.4-0.1-0.9-0.2-1.2
			c-0.1-0.4-0.3-0.7-0.5-0.9c-0.2-0.2-0.5-0.4-0.8-0.6c-0.3-0.1-0.7-0.2-1.1-0.2c-0.4,0-0.8,0.1-1.1,0.2c-0.3,0.1-0.6,0.3-0.9,0.6
			c-0.3,0.3-0.4,0.6-0.6,0.9c-0.1,0.4-0.2,0.7-0.2,1.2c0,0.4,0.1,0.8,0.2,1.1c0.1,0.4,0.3,0.7,0.6,0.9c0.2,0.3,0.5,0.5,0.9,0.6
			c0.3,0.2,0.7,0.2,1.2,0.2c0.5,0,1-0.1,1.4-0.3C197.4,95.5,197.7,95.2,198.1,94.8L198.1,94.8z"></path>
		<path class="sl0" d="M222.6,95.1L222.6,95.1l-0.7-0.8l0,0.1c-0.3,0.4-0.7,0.6-1.3,0.6c-0.3,0-0.5-0.1-0.7-0.2
			c-0.2-0.1-0.4-0.2-0.5-0.4c-0.2-0.2-0.3-0.4-0.4-0.6c-0.1-0.2-0.1-0.5-0.1-0.8c0-0.3,0-0.5,0.1-0.8c0.1-0.2,0.2-0.4,0.3-0.6
			c0.1-0.2,0.3-0.3,0.5-0.4c0.2-0.1,0.5-0.2,0.8-0.2c0.3,0,0.5,0.1,0.7,0.2c0.2,0.1,0.4,0.3,0.6,0.5l0,0l0.8-0.7l0,0
			c-0.3-0.3-0.6-0.5-1-0.7c-0.4-0.1-0.8-0.2-1.1-0.2c-0.4,0-0.8,0.1-1.2,0.2c-0.3,0.1-0.6,0.3-0.9,0.6c-0.2,0.3-0.4,0.6-0.6,0.9
			c-0.1,0.3-0.2,0.7-0.2,1.1c0,0.4,0.1,0.8,0.2,1.2c0.1,0.3,0.3,0.7,0.6,0.9c0.2,0.3,0.5,0.5,0.9,0.6c0.3,0.1,0.7,0.2,1.2,0.2
			c0.4,0,0.8-0.1,1.1-0.2C222,95.6,222.3,95.4,222.6,95.1"></path>
		<path class="sl0" d="M124.2,89.9c0,0.3-0.1,0.6-0.2,0.7c-0.1,0.2-0.3,0.3-0.6,0.4c-0.2,0.1-0.5,0.1-0.8,0.1c-0.3,0-0.6,0-0.8,0
			H121v-2.6h1.3c0.2,0,0.5,0,0.7,0c0.2,0,0.4,0.1,0.6,0.2c0.2,0.1,0.3,0.2,0.4,0.4C124.2,89.4,124.2,89.6,124.2,89.9 M123.4,92.1
			c0.6-0.1,1.1-0.3,1.4-0.7c0.4-0.4,0.6-0.9,0.6-1.5c0-0.5-0.1-0.9-0.3-1.2c-0.2-0.3-0.5-0.5-0.8-0.7c-0.3-0.2-0.7-0.3-1.1-0.3
			c-0.4,0-0.8-0.1-1.2-0.1H120v8.2h1.1v-3.6h1.2l2.2,3.6l0,0h1.3L123.4,92.1z"></path>
		<path class="sl0" d="M231,93.1c0,0.3,0,0.5-0.1,0.8c-0.1,0.2-0.2,0.4-0.4,0.6c-0.2,0.2-0.4,0.3-0.6,0.4c-0.2,0.1-0.5,0.2-0.8,0.2
			c-0.3,0-0.5-0.1-0.8-0.2c-0.2-0.1-0.4-0.2-0.6-0.4c-0.2-0.2-0.3-0.4-0.4-0.6c-0.1-0.2-0.1-0.5-0.1-0.8c0-0.3,0-0.5,0.1-0.8
			c0.1-0.2,0.2-0.4,0.4-0.6c0.2-0.2,0.4-0.3,0.6-0.4c0.2-0.1,0.5-0.2,0.8-0.2s0.5,0.1,0.8,0.2c0.2,0.1,0.4,0.2,0.6,0.4
			c0.2,0.2,0.3,0.4,0.4,0.6C230.9,92.5,231,92.8,231,93.1 M231.8,91.9c-0.1-0.4-0.3-0.7-0.6-0.9c-0.2-0.3-0.6-0.5-0.9-0.6
			c-0.4-0.1-0.7-0.2-1.2-0.2c-0.4,0-0.8,0.1-1.1,0.2c-0.3,0.1-0.6,0.4-0.8,0.6v-0.7h-1v8.1h1V95c0.2,0.3,0.4,0.5,0.7,0.7
			c0.4,0.2,0.8,0.3,1.3,0.3c0.4,0,0.7-0.1,1.1-0.2c0.3-0.1,0.6-0.3,0.9-0.6c0.2-0.3,0.4-0.6,0.6-0.9c0.1-0.3,0.2-0.7,0.2-1.1
			C232,92.7,232,92.3,231.8,91.9"></path>
		<polygon class="sl0" points="140.2,87.6 139.1,87.6 139.1,94.2 134.5,87.6 134.4,87.6 133.1,87.6 133.1,95.8 134.2,95.8
			134.2,89.2 138.8,95.8 138.9,95.8 140.2,95.8 		"></polygon>
		<path class="sl0" d="M171.3,93.2v0.3c0,0.2,0,0.4-0.1,0.6s-0.2,0.4-0.3,0.5c-0.1,0.1-0.3,0.3-0.5,0.3c-0.2,0.1-0.4,0.1-0.7,0.1
			c-0.3,0-0.6-0.1-0.8-0.2c-0.2-0.1-0.3-0.3-0.3-0.7c0-0.3,0.2-0.6,0.5-0.7c0.3-0.2,0.8-0.2,1.3-0.2H171.3z M172.4,95.7
			c0-0.1,0-0.3-0.1-0.4c0-0.2,0-0.3,0-0.5v-2.3c0-0.8-0.2-1.4-0.5-1.7c-0.4-0.4-1-0.6-1.8-0.6c-0.4,0-0.8,0.1-1.2,0.2
			c-0.4,0.1-0.7,0.4-1,0.6l0,0l0.6,0.7l0,0c0.2-0.2,0.4-0.3,0.7-0.4c0.3-0.1,0.6-0.1,0.8-0.1c0.4,0,0.7,0.1,0.9,0.3
			c0.2,0.2,0.3,0.5,0.3,0.8v0.1H171c-0.3,0-0.7,0-1.1,0c-0.4,0-0.8,0.1-1.1,0.2c-0.3,0.1-0.6,0.3-0.9,0.6c-0.2,0.3-0.4,0.6-0.4,1.1
			c0,0.3,0.1,0.5,0.2,0.7c0.1,0.2,0.3,0.4,0.4,0.5c0.2,0.1,0.4,0.2,0.6,0.3c0.2,0.1,0.5,0.1,0.8,0.1c0.4,0,0.8-0.1,1.1-0.3
			c0.3-0.2,0.5-0.4,0.6-0.6c0,0.1,0,0.2,0,0.3c0,0.2,0,0.3,0.1,0.4l0,0L172.4,95.7L172.4,95.7z"></path>
		<path class="sl0" d="M187,90.8c-0.2-0.2-0.4-0.4-0.7-0.5c-0.3-0.1-0.6-0.2-0.9-0.2c-0.2,0-0.4,0-0.6,0.1c-0.2,0.1-0.4,0.1-0.5,0.2
			c-0.2,0.1-0.3,0.2-0.4,0.3c-0.1,0.1-0.1,0.2-0.2,0.2c0-0.1,0-0.2,0-0.3c0-0.1,0-0.3,0-0.4v-0.1h-1v0.1c0,0.2,0,0.4,0,0.6
			c0,0.2,0,0.5,0,0.7v4.2h1v-2.7c0-0.3,0-0.6,0.1-0.8c0.1-0.2,0.2-0.5,0.3-0.6c0.1-0.2,0.3-0.3,0.5-0.4c0.2-0.1,0.4-0.1,0.7-0.1
			c0.4,0,0.7,0.1,0.9,0.4c0.2,0.2,0.3,0.6,0.3,1v3.3h1v-3.4c0-0.3,0-0.6-0.1-0.9C187.3,91.2,187.2,91,187,90.8"></path>
	</g>
</g>
</svg>